<svg width="91" height="96" viewBox="0 0 91 96" fill="none" xmlns="http://www.w3.org/2000/svg">
<path d="M30.7695 95.9229V70.9229C25.6029 70.5062 20.5404 69.9229 15.582 69.1729C10.6237 68.4229 5.6862 67.3395 0.769531 65.9229L3.26953 55.9229C10.1862 57.8395 17.1862 59.152 24.2695 59.8604C31.3529 60.5687 38.5195 60.9229 45.7695 60.9229C52.9362 60.9229 60.0612 60.5687 67.1445 59.8604C74.2279 59.152 81.2695 57.8395 88.2695 55.9229L90.7695 65.9229C85.7695 67.3395 80.7904 68.4229 75.832 69.1729C70.8737 69.9229 65.8529 70.5062 60.7695 70.9229V95.9229H30.7695ZM45.7695 55.9229C42.9362 55.9229 40.5612 54.9645 38.6445 53.0479C36.7279 51.1312 35.7695 48.7562 35.7695 45.9229C35.7695 43.1729 36.7279 40.8187 38.6445 38.8604C40.5612 36.902 42.9362 35.9229 45.7695 35.9229C48.5195 35.9229 50.8737 36.902 52.832 38.8604C54.7904 40.8187 55.7695 43.1729 55.7695 45.9229C55.7695 48.7562 54.7904 51.1312 52.832 53.0479C50.8737 54.9645 48.5195 55.9229 45.7695 55.9229ZM8.26953 40.9229C6.10286 40.9229 4.3112 40.2145 2.89453 38.7979C1.47786 37.3812 0.769531 35.5895 0.769531 33.4229C0.769531 31.3395 1.47786 29.5687 2.89453 28.1104C4.3112 26.652 6.10286 25.9229 8.26953 25.9229C10.3529 25.9229 12.1237 26.652 13.582 28.1104C15.0404 29.5687 15.7695 31.3395 15.7695 33.4229C15.7695 35.5895 15.0404 37.3812 13.582 38.7979C12.1237 40.2145 10.3529 40.9229 8.26953 40.9229ZM83.2695 40.9229C81.1029 40.9229 79.3112 40.2145 77.8945 38.7979C76.4779 37.3812 75.7695 35.5895 75.7695 33.4229C75.7695 31.3395 76.4779 29.5687 77.8945 28.1104C79.3112 26.652 81.1029 25.9229 83.2695 25.9229C85.3529 25.9229 87.1237 26.652 88.582 28.1104C90.0404 29.5687 90.7695 31.3395 90.7695 33.4229C90.7695 35.5895 90.0404 37.3812 88.582 38.7979C87.1237 40.2145 85.3529 40.9229 83.2695 40.9229ZM22.0195 22.1729C19.8529 22.1729 18.0612 21.4645 16.6445 20.0479C15.2279 18.6312 14.5195 16.8395 14.5195 14.6729C14.5195 12.5895 15.2279 10.8187 16.6445 9.36035C18.0612 7.90202 19.8529 7.17285 22.0195 7.17285C24.1029 7.17285 25.8737 7.90202 27.332 9.36035C28.7904 10.8187 29.5195 12.5895 29.5195 14.6729C29.5195 16.8395 28.7904 18.6312 27.332 20.0479C25.8737 21.4645 24.1029 22.1729 22.0195 22.1729ZM69.5195 22.1729C67.3529 22.1729 65.5612 21.4645 64.1445 20.0479C62.7279 18.6312 62.0195 16.8395 62.0195 14.6729C62.0195 12.5895 62.7279 10.8187 64.1445 9.36035C65.5612 7.90202 67.3529 7.17285 69.5195 7.17285C71.6029 7.17285 73.3737 7.90202 74.832 9.36035C76.2904 10.8187 77.0195 12.5895 77.0195 14.6729C77.0195 16.8395 76.2904 18.6312 74.832 20.0479C73.3737 21.4645 71.6029 22.1729 69.5195 22.1729ZM45.7695 15.9229C43.6029 15.9229 41.8112 15.2145 40.3945 13.7979C38.9779 12.3812 38.2695 10.5895 38.2695 8.42285C38.2695 6.33952 38.9779 4.56869 40.3945 3.11035C41.8112 1.65202 43.6029 0.922852 45.7695 0.922852C47.8529 0.922852 49.6237 1.65202 51.082 3.11035C52.5404 4.56869 53.2695 6.33952 53.2695 8.42285C53.2695 10.5895 52.5404 12.3812 51.082 13.7979C49.6237 15.2145 47.8529 15.9229 45.7695 15.9229Z" fill="#724BB7"/>
</svg>
