<svg width="246" height="293" viewBox="0 0 246 293" fill="none" xmlns="http://www.w3.org/2000/svg">
<circle cx="176.885" cy="68.467" r="67.7845" transform="rotate(-0.309016 176.885 68.467)" fill="#EAE2F8"/>
<path d="M164.249 59.0237L156.999 66.2734C156.533 66.7398 155.95 66.9836 155.25 67.0048C154.551 67.026 153.947 66.7822 153.438 66.2734C152.972 65.8071 152.728 65.2241 152.707 64.5246C152.685 63.825 152.908 63.2209 153.374 62.7121L155.219 60.8043L153.438 59.0237C152.929 58.5149 152.675 57.9214 152.675 57.243C152.675 56.5647 152.929 55.9711 153.438 55.4624L156.999 51.9011L155.155 49.9933C154.689 49.5269 154.455 48.9439 154.455 48.2444C154.455 47.5449 154.71 46.9407 155.219 46.432C155.685 45.9656 156.268 45.7218 156.967 45.7006C157.667 45.6794 158.271 45.902 158.78 46.3684L160.688 48.2126L164.249 44.6513C164.758 44.1426 165.351 43.8882 166.03 43.8882C166.708 43.8882 167.302 44.1426 167.81 44.6513L169.591 46.432L171.499 44.5877C171.965 44.1214 172.548 43.8882 173.248 43.8882C173.947 43.8882 174.551 44.1426 175.06 44.6513C175.526 45.1177 175.76 45.7112 175.76 46.432C175.76 47.1527 175.526 47.7462 175.06 48.2126L167.81 55.4624L189.432 77.0845L196.682 69.8347C197.149 69.3684 197.731 69.1246 198.431 69.1034C199.131 69.0822 199.735 69.326 200.243 69.8347C200.71 70.3011 200.954 70.884 200.975 71.5836C200.996 72.2831 200.773 72.8873 200.307 73.396L198.463 75.3038L200.243 77.0845C200.752 77.5932 201.007 78.1868 201.007 78.8651C201.007 79.5435 200.752 80.137 200.243 80.6458L196.682 84.2071L198.526 86.1149C198.993 86.5813 199.226 87.1642 199.226 87.8637C199.226 88.5633 198.972 89.1674 198.463 89.6762C197.996 90.1425 197.413 90.3863 196.714 90.4075C196.014 90.4287 195.41 90.2061 194.902 89.7398L192.994 87.8955L189.432 91.4568C188.924 91.9656 188.33 92.22 187.652 92.22C186.973 92.22 186.38 91.9656 185.871 91.4568L184.09 89.6762L182.183 91.5204C181.716 91.9868 181.133 92.22 180.434 92.22C179.734 92.22 179.13 91.9656 178.621 91.4568C178.155 90.9905 177.922 90.3969 177.922 89.6762C177.922 88.9555 178.155 88.3619 178.621 87.8955L185.871 80.6458L164.249 59.0237Z" fill="#724BB7"/>
<circle cx="72.7008" cy="123.463" r="71.3521" transform="rotate(-0.309016 72.7008 123.463)" fill="#DCEEFB"/>
<path d="M47.2158 140.058V133.12C47.2158 131.81 47.6691 130.712 48.5755 129.825C49.482 128.939 50.5717 128.495 51.8446 128.495H59.4241C60.1956 128.495 60.9284 128.688 61.6227 129.074C62.3171 129.459 62.8764 129.979 63.3007 130.634C64.4193 132.138 65.7982 133.313 67.4376 134.161C69.0769 135.009 70.8223 135.433 72.6738 135.433C74.5639 135.433 76.3286 135.009 77.968 134.161C79.6073 133.313 80.967 132.138 82.047 130.634C82.5485 129.979 83.1367 129.459 83.8117 129.074C84.4867 128.688 85.1907 128.495 85.9236 128.495H93.5031C94.8146 128.495 95.9139 128.939 96.8011 129.825C97.6883 130.712 98.1319 131.81 98.1319 133.12V140.058C98.1319 140.713 97.9101 141.262 97.4665 141.706C97.0229 142.149 96.4732 142.371 95.8175 142.371H84.2457C83.5899 142.371 83.0403 142.149 82.5967 141.706C82.1531 141.262 81.9313 140.713 81.9313 140.058V137.11C80.5813 138.073 79.1251 138.805 77.5629 139.306C76.0007 139.807 74.371 140.058 72.6738 140.058C71.0152 140.058 69.3952 139.798 67.8137 139.278C66.2322 138.757 64.7664 138.015 63.4164 137.052V140.058C63.4164 140.713 63.1946 141.262 62.751 141.706C62.3074 142.149 61.7578 142.371 61.102 142.371H49.5302C48.8744 142.371 48.3248 142.149 47.8812 141.706C47.4376 141.262 47.2158 140.713 47.2158 140.058ZM72.6738 133.12C71.2081 133.12 69.8195 132.783 68.508 132.109C67.1965 131.434 66.0972 130.5 65.21 129.305C64.5543 128.341 63.7346 127.58 62.751 127.021C61.7674 126.462 60.697 126.183 59.5398 126.183C60.3884 124.757 62.1821 123.629 64.9207 122.801C67.6594 121.972 70.2438 121.558 72.6738 121.558C75.1039 121.558 77.6883 121.972 80.427 122.801C83.1656 123.629 84.9593 124.757 85.8079 126.183C84.6893 126.183 83.6285 126.462 82.6256 127.021C81.6227 127.58 80.7934 128.341 80.1377 129.305C79.2891 130.538 78.209 131.482 76.8976 132.138C75.5861 132.793 74.1782 133.12 72.6738 133.12ZM54.1589 126.183C52.2303 126.183 50.5909 125.508 49.2409 124.159C47.8908 122.81 47.2158 121.172 47.2158 119.245C47.2158 117.28 47.8908 115.632 49.2409 114.302C50.5909 112.973 52.2303 112.308 54.1589 112.308C56.1261 112.308 57.7751 112.973 59.1059 114.302C60.4366 115.632 61.102 117.28 61.102 119.245C61.102 121.172 60.4366 122.81 59.1059 124.159C57.7751 125.508 56.1261 126.183 54.1589 126.183ZM91.1888 126.183C89.2601 126.183 87.6208 125.508 86.2707 124.159C84.9207 122.81 84.2457 121.172 84.2457 119.245C84.2457 117.28 84.9207 115.632 86.2707 114.302C87.6208 112.973 89.2601 112.308 91.1888 112.308C93.156 112.308 94.805 112.973 96.1357 114.302C97.4665 115.632 98.1319 117.28 98.1319 119.245C98.1319 121.172 97.4665 122.81 96.1357 124.159C94.805 125.508 93.156 126.183 91.1888 126.183ZM72.6738 119.245C70.7452 119.245 69.1059 118.571 67.7558 117.222C66.4058 115.873 65.7307 114.235 65.7307 112.308C65.7307 110.342 66.4058 108.694 67.7558 107.365C69.1059 106.035 70.7452 105.37 72.6738 105.37C74.6411 105.37 76.29 106.035 77.6208 107.365C78.9516 108.694 79.6169 110.342 79.6169 112.308C79.6169 114.235 78.9516 115.873 77.6208 117.222C76.29 118.571 74.6411 119.245 72.6738 119.245Z" fill="#4098D7"/>
<circle cx="157.446" cy="208.236" r="84.4461" fill="#F0FCF9"/>
<path d="M134.894 244.546V229.122C131.494 226.014 128.855 222.382 126.976 218.227C125.097 214.073 124.157 209.694 124.157 205.091C124.157 196.124 127.289 188.502 133.552 182.225C139.815 175.948 147.421 172.81 156.368 172.81C163.825 172.81 170.431 175.006 176.187 179.4C181.944 183.794 185.687 189.518 187.417 196.572L192.069 214.954C192.368 216.09 192.159 217.121 191.443 218.048C190.727 218.975 189.773 219.438 188.58 219.438H181.422V230.198C181.422 232.171 180.721 233.86 179.319 235.265C177.917 236.669 176.232 237.372 174.264 237.372H167.106V244.546H159.947V230.198H174.264V212.264H183.927L180.527 198.365C179.155 192.926 176.232 188.502 171.758 185.094C167.285 181.687 162.155 179.983 156.368 179.983C149.449 179.983 143.544 182.404 138.652 187.246C133.761 192.089 131.315 197.977 131.315 204.911C131.315 208.498 132.046 211.906 133.507 215.134C134.969 218.362 137.042 221.231 139.726 223.742L142.052 225.894V244.546H134.894ZM152.789 219.438H159.947L160.484 214.954C160.962 214.775 161.394 214.566 161.782 214.327C162.169 214.088 162.512 213.819 162.811 213.52L166.927 215.313L170.506 209.216L166.927 206.525C167.046 206.047 167.106 205.569 167.106 205.091C167.106 204.613 167.046 204.134 166.927 203.656L170.506 200.966L166.927 194.868L162.811 196.662C162.512 196.363 162.169 196.094 161.782 195.855C161.394 195.616 160.962 195.406 160.484 195.227L159.947 190.744H152.789L152.253 195.227C151.775 195.406 151.343 195.616 150.955 195.855C150.567 196.094 150.224 196.363 149.926 196.662L145.81 194.868L142.231 200.966L145.81 203.656C145.691 204.134 145.631 204.613 145.631 205.091C145.631 205.569 145.691 206.047 145.81 206.525L142.231 209.216L145.81 215.313L149.926 213.52C150.224 213.819 150.567 214.088 150.955 214.327C151.343 214.566 151.775 214.775 152.253 214.954L152.789 219.438ZM156.368 210.471C154.877 210.471 153.61 209.948 152.566 208.902C151.522 207.856 151 206.585 151 205.091C151 203.596 151.522 202.326 152.566 201.28C153.61 200.234 154.877 199.711 156.368 199.711C157.86 199.711 159.127 200.234 160.171 201.28C161.215 202.326 161.737 203.596 161.737 205.091C161.737 206.585 161.215 207.856 160.171 208.902C159.127 209.948 157.86 210.471 156.368 210.471Z" fill="#2DCCA7"/>
</svg>
