<svg width="61" height="65" viewBox="0 0 61 65" fill="none" xmlns="http://www.w3.org/2000/svg">
<rect width="57" height="61" transform="translate(2 2)" fill="white"/>
<path d="M4.55273 36.2101C4.55273 34.7133 5.76608 33.5 7.26281 33.5H26.4241C27.9208 33.5 29.1341 34.7133 29.1341 36.2101V55.3713C29.1341 56.8681 27.9208 58.0814 26.4241 58.0814H7.26281C5.76608 58.0814 4.55273 56.8681 4.55273 55.3713V36.2101Z" fill="#E4E7EB"/>
<path d="M31.8652 36.3077C31.8652 34.811 33.0786 33.5977 34.5753 33.5977H53.7366C55.2333 33.5977 56.4466 34.811 56.4466 36.3077V55.2752C56.4466 56.7719 55.2333 57.9853 53.7366 57.9853H34.5753C33.0786 57.9853 31.8652 56.7719 31.8652 55.2752V36.3077Z" fill="#A081D9"/>
<path d="M39.0732 48.793H34.9843V47.9328L36.4526 46.4485C36.7487 46.1444 36.9861 45.891 37.1648 45.6883C37.3462 45.4829 37.4769 45.2962 37.5569 45.1282C37.6396 44.9601 37.6809 44.7801 37.6809 44.588C37.6809 44.356 37.6156 44.1826 37.4849 44.0679C37.3568 43.9506 37.1848 43.8919 36.9688 43.8919C36.742 43.8919 36.522 43.9439 36.3086 44.0479C36.0952 44.1519 35.8725 44.3 35.6405 44.492L34.9683 43.6958C35.1364 43.5518 35.3137 43.4158 35.5004 43.2878C35.6898 43.1597 35.9085 43.057 36.1566 42.9797C36.4073 42.8997 36.7074 42.8597 37.0568 42.8597C37.4409 42.8597 37.7703 42.929 38.045 43.0677C38.3224 43.2064 38.5358 43.3958 38.6851 43.6358C38.8345 43.8732 38.9092 44.1426 38.9092 44.444C38.9092 44.7667 38.8452 45.0615 38.7171 45.3282C38.5891 45.5949 38.4024 45.859 38.157 46.1204C37.9143 46.3818 37.6209 46.6712 37.2768 46.9886L36.5247 47.6967V47.7527H39.0732V48.793ZM43.7302 45.8683C43.7302 46.3404 43.6929 46.7619 43.6182 47.1326C43.5462 47.5034 43.4288 47.8181 43.2661 48.0768C43.1061 48.3355 42.8954 48.5329 42.634 48.6689C42.3726 48.805 42.0552 48.873 41.6818 48.873C41.2124 48.873 40.8269 48.7543 40.5255 48.5169C40.2241 48.2769 40.0014 47.9328 39.8574 47.4847C39.7134 47.0339 39.6413 46.4951 39.6413 45.8683C39.6413 45.2362 39.7067 44.6961 39.8374 44.248C39.9708 43.7972 40.1868 43.4518 40.4855 43.2117C40.7843 42.9717 41.183 42.8517 41.6818 42.8517C42.1486 42.8517 42.5327 42.9717 42.8341 43.2117C43.1381 43.4491 43.3635 43.7932 43.5102 44.244C43.6569 44.6921 43.7302 45.2335 43.7302 45.8683ZM40.8696 45.8683C40.8696 46.3138 40.8936 46.6858 40.9416 46.9846C40.9923 47.2806 41.0763 47.5034 41.1937 47.6527C41.311 47.8021 41.4738 47.8768 41.6818 47.8768C41.8872 47.8768 42.0485 47.8034 42.1659 47.6567C42.2859 47.5074 42.3713 47.2846 42.422 46.9886C42.4726 46.6898 42.498 46.3164 42.498 45.8683C42.498 45.4229 42.4726 45.0508 42.422 44.7521C42.3713 44.4533 42.2859 44.2293 42.1659 44.0799C42.0485 43.9279 41.8872 43.8519 41.6818 43.8519C41.4738 43.8519 41.311 43.9279 41.1937 44.0799C41.0763 44.2293 40.9923 44.4533 40.9416 44.7521C40.8936 45.0508 40.8696 45.4229 40.8696 45.8683ZM48.5833 47.5807H47.8792V48.793H46.6709V47.5807H44.1743V46.7205L46.7389 42.9437H47.8792V46.6205H48.5833V47.5807ZM46.6709 46.6205V45.6283C46.6709 45.5349 46.6722 45.4242 46.6749 45.2962C46.6802 45.1682 46.6856 45.0401 46.6909 44.9121C46.6962 44.7841 46.7016 44.6707 46.7069 44.572C46.7149 44.4707 46.7202 44.4 46.7229 44.36H46.6909C46.6402 44.4693 46.5869 44.576 46.5309 44.6801C46.4749 44.7814 46.4095 44.8881 46.3348 45.0001L45.2626 46.6205H46.6709ZM51.0679 42.8677C51.4039 42.8677 51.7133 42.9197 51.9961 43.0237C52.2815 43.1277 52.5095 43.2851 52.6802 43.4958C52.8509 43.7038 52.9363 43.9652 52.9363 44.28C52.9363 44.5147 52.8896 44.7201 52.7962 44.8961C52.7056 45.0721 52.5815 45.2268 52.4242 45.3602C52.2668 45.4909 52.0881 45.6056 51.888 45.7043C52.0961 45.8136 52.2935 45.9417 52.4802 46.0884C52.6669 46.2324 52.8189 46.4018 52.9363 46.5965C53.0563 46.7912 53.1163 47.0179 53.1163 47.2766C53.1163 47.602 53.0296 47.8848 52.8563 48.1248C52.6829 48.3622 52.4428 48.5462 52.1361 48.6769C51.8294 48.8076 51.4733 48.873 51.0679 48.873C50.6304 48.873 50.2584 48.8103 49.9516 48.6849C49.6449 48.5596 49.4115 48.3809 49.2515 48.1488C49.0914 47.9141 49.0114 47.634 49.0114 47.3086C49.0114 47.0419 49.0608 46.8099 49.1594 46.6125C49.2608 46.4151 49.3968 46.2457 49.5675 46.1044C49.7382 45.9603 49.9263 45.8377 50.1317 45.7363C49.9583 45.6269 49.7996 45.5029 49.6556 45.3642C49.5142 45.2255 49.4008 45.0668 49.3155 44.8881C49.2328 44.7094 49.1915 44.504 49.1915 44.272C49.1915 43.9626 49.2781 43.7038 49.4515 43.4958C49.6275 43.2878 49.8583 43.1317 50.1437 43.0277C50.4291 42.921 50.7371 42.8677 51.0679 42.8677ZM50.1557 47.2366C50.1557 47.4473 50.2303 47.622 50.3797 47.7607C50.5317 47.8968 50.7558 47.9648 51.0519 47.9648C51.3586 47.9648 51.588 47.8994 51.74 47.7687C51.892 47.6354 51.9681 47.4607 51.9681 47.2446C51.9681 47.0953 51.9241 46.9646 51.836 46.8525C51.7507 46.7405 51.6427 46.6405 51.512 46.5525C51.3813 46.4618 51.2492 46.3778 51.1159 46.3004L51.0079 46.2444C50.8371 46.3218 50.6878 46.4084 50.5598 46.5045C50.4344 46.6005 50.3357 46.7085 50.2637 46.8285C50.1917 46.9486 50.1557 47.0846 50.1557 47.2366ZM51.0599 43.7719C50.8572 43.7719 50.6891 43.8239 50.5558 43.9279C50.4224 44.0319 50.3557 44.1786 50.3557 44.368C50.3557 44.5014 50.3877 44.6187 50.4517 44.7201C50.5184 44.8188 50.6051 44.9054 50.7118 44.9801C50.8211 45.0548 50.9398 45.1242 51.0679 45.1882C51.1906 45.1295 51.3052 45.0641 51.4119 44.9921C51.5186 44.9201 51.6053 44.8334 51.672 44.7321C51.7387 44.6307 51.772 44.5094 51.772 44.368C51.772 44.1786 51.704 44.0319 51.568 43.9279C51.4346 43.8239 51.2652 43.7719 51.0599 43.7719Z" fill="#1F2933"/>
<path d="M31.8652 8.71008C31.8652 7.21334 33.0786 6 34.5753 6H53.7366C55.2333 6 56.4466 7.21334 56.4466 8.71008V27.8713C56.4466 29.3681 55.2333 30.5814 53.7366 30.5814H34.5753C33.0786 30.5814 31.8652 29.3681 31.8652 27.8713V8.71008Z" fill="#E4E7EB"/>
<path d="M4.55273 8.80773C4.55273 7.311 5.76608 6.09766 7.26281 6.09766H26.4241C27.9208 6.09766 29.1341 7.311 29.1341 8.80774V27.7752C29.1341 29.2719 27.9208 30.4853 26.4241 30.4853H7.26281C5.76608 30.4853 4.55273 29.2719 4.55273 27.7752V8.80773Z" fill="#2DCCA7"/>
<path d="M15.2285 21.293H13.9922V17.9082C13.9922 17.8149 13.9936 17.7002 13.9962 17.5641C13.9989 17.4255 14.0029 17.2841 14.0082 17.1401C14.0136 16.9934 14.0189 16.8613 14.0242 16.744C13.9949 16.7786 13.9349 16.8387 13.8442 16.924C13.7562 17.0067 13.6735 17.0814 13.5961 17.1481L12.924 17.6882L12.3279 16.944L14.2123 15.4437H15.2285V21.293ZM16.8208 18.8084C16.8208 18.4723 16.8449 18.1403 16.8929 17.8122C16.9435 17.4815 17.0302 17.1707 17.1529 16.88C17.2756 16.5866 17.4477 16.3279 17.669 16.1038C17.8904 15.8771 18.1718 15.6997 18.5132 15.5717C18.8546 15.441 19.2681 15.3757 19.7535 15.3757C19.8682 15.3757 20.0015 15.381 20.1536 15.3917C20.3083 15.3997 20.4363 15.4143 20.5377 15.4357V16.4239C20.431 16.3999 20.3163 16.3812 20.1936 16.3679C20.0736 16.3519 19.9535 16.3439 19.8335 16.3439C19.3481 16.3439 18.972 16.4212 18.7053 16.5759C18.4412 16.7306 18.2545 16.9453 18.1451 17.2201C18.0384 17.4921 17.9758 17.8095 17.9571 18.1723H18.0091C18.0838 18.0416 18.1771 17.9256 18.2892 17.8242C18.4039 17.7228 18.5426 17.6428 18.7053 17.5842C18.868 17.5228 19.0587 17.4921 19.2774 17.4921C19.6188 17.4921 19.9149 17.5655 20.1656 17.7122C20.4163 17.8562 20.6097 18.0656 20.7457 18.3403C20.8817 18.615 20.9498 18.9498 20.9498 19.3445C20.9498 19.766 20.8684 20.1287 20.7057 20.4328C20.543 20.7368 20.3123 20.9702 20.0135 21.1329C19.7175 21.293 19.3654 21.373 18.9573 21.373C18.6586 21.373 18.3799 21.3223 18.1211 21.221C17.8624 21.1169 17.6357 20.9596 17.441 20.7488C17.2463 20.5381 17.0942 20.2727 16.9849 19.9527C16.8755 19.6299 16.8208 19.2485 16.8208 18.8084ZM18.9333 20.3848C19.176 20.3848 19.3734 20.3021 19.5254 20.1367C19.6775 19.9713 19.7535 19.7126 19.7535 19.3605C19.7535 19.0751 19.6868 18.8511 19.5534 18.6884C19.4228 18.523 19.224 18.4403 18.9573 18.4403C18.7759 18.4403 18.6159 18.4817 18.4772 18.5644C18.3412 18.6444 18.2358 18.7471 18.1611 18.8724C18.0865 18.9951 18.0491 19.1218 18.0491 19.2525C18.0491 19.3885 18.0678 19.5232 18.1051 19.6566C18.1425 19.79 18.1985 19.9113 18.2732 20.0207C18.3478 20.13 18.4399 20.2181 18.5492 20.2847C18.6613 20.3514 18.7893 20.3848 18.9333 20.3848Z" fill="#1F2933"/>
</svg>
