<svg width="61" height="65" viewBox="0 0 61 65" fill="none" xmlns="http://www.w3.org/2000/svg">
<g clip-path="url(#clip0_14601_36911)">
<g filter="url(#filter0_dddd_14601_36911)">
<g filter="url(#filter1_dddd_14601_36911)">
<rect x="34.7773" y="3.27734" width="25.3451" height="34.8496" rx="3.58101" transform="rotate(21.6034 34.7773 3.27734)" fill="#DCEEFB"/>
<path d="M39.364 24.0628L38.3754 23.6532C38.4743 23.4217 38.5754 23.2289 38.6786 23.0748C38.7855 22.9192 38.9099 22.7906 39.0519 22.6889C39.1966 22.5883 39.3691 22.5008 39.5695 22.4264C39.736 22.3682 39.8848 22.3087 40.0159 22.2479C40.1471 22.1872 40.2599 22.1158 40.3544 22.0339C40.45 21.9493 40.5246 21.8424 40.5781 21.7132C40.6402 21.5633 40.6684 21.4296 40.6625 21.3121C40.6604 21.1931 40.6247 21.089 40.5557 20.9998C40.4892 20.9117 40.3888 20.8398 40.2544 20.7842C40.1433 20.7381 40.0297 20.7198 39.9137 20.7293C39.7988 20.7362 39.69 20.776 39.5873 20.8485C39.4872 20.9221 39.4026 21.0384 39.3336 21.1976L38.2093 20.7318C38.3638 20.381 38.5662 20.1226 38.8165 19.9568C39.0706 19.7895 39.3524 19.7049 39.6621 19.703C39.9729 19.6985 40.2924 19.7642 40.6206 19.9002C40.9825 20.0501 41.268 20.2381 41.4772 20.464C41.6875 20.6874 41.814 20.9412 41.8568 21.2254C41.9006 21.507 41.8556 21.8094 41.7217 22.1325C41.6286 22.3573 41.5017 22.5394 41.341 22.6788C41.1813 22.8155 40.9994 22.9294 40.7951 23.0205C40.5909 23.1115 40.3703 23.2018 40.1333 23.2913C39.9314 23.3621 39.7733 23.4586 39.659 23.5809C39.5474 23.7042 39.449 23.8649 39.364 24.0628ZM37.7628 24.803C37.8313 24.6376 37.9449 24.5242 38.1036 24.4628C38.2634 24.3987 38.4389 24.4063 38.6301 24.4856C38.8188 24.5637 38.947 24.6819 39.0147 24.8402C39.086 24.9969 39.0874 25.158 39.0189 25.3234C38.9525 25.4837 38.8381 25.5953 38.6758 25.6582C38.516 25.7223 38.3418 25.7152 38.1531 25.637C37.9619 25.5578 37.8324 25.439 37.7647 25.2808C37.697 25.1225 37.6964 24.9633 37.7628 24.803Z" fill="#05400A"/>
</g>
<g filter="url(#filter2_dddd_14601_36911)">
<rect x="2" y="29.8203" width="25.3451" height="34.8496" rx="3.58101" transform="rotate(-30 2 29.8203)" fill="white"/>
<path d="M23.0051 43.4731C22.6366 43.7129 22.2352 43.7916 21.801 43.7091C21.3667 43.6266 21.0139 43.4164 20.7426 43.0787C20.2715 43.303 19.7856 43.3467 19.285 43.2097C18.7843 43.0726 18.3906 42.7837 18.1037 42.343C18.005 42.1912 17.9273 42.0284 17.8706 41.8544C17.8139 41.6804 17.783 41.5025 17.7779 41.3207C17.6137 41.2424 17.4648 41.1439 17.331 41.0253C17.1972 40.9066 17.0786 40.7678 16.9751 40.6089C16.6882 40.1681 16.5847 39.6929 16.6644 39.1833C16.7442 38.6737 16.9784 38.2512 17.3671 37.916C17.1489 37.5334 17.0936 37.1245 17.2013 36.6893C17.3089 36.2541 17.5506 35.9142 17.9263 35.6697C18.1141 35.5474 18.3129 35.4695 18.5225 35.4359C18.7321 35.4024 18.9455 35.4023 19.1627 35.4358C19.2128 35.2283 19.2975 35.0344 19.4166 34.854C19.5358 34.6736 19.6893 34.5222 19.8771 34.3999C20.2529 34.1554 20.6585 34.0714 21.094 34.148C21.5296 34.2245 21.8781 34.44 22.1396 34.7943C22.6035 34.5747 23.0876 34.5322 23.5919 34.6669C24.0961 34.8016 24.4917 35.0893 24.7785 35.5301C24.882 35.689 24.9609 35.8537 25.0152 36.024C25.0695 36.1944 25.0992 36.3705 25.1044 36.5523C25.2685 36.6306 25.4187 36.7309 25.5548 36.8532C25.691 36.9754 25.8084 37.1124 25.9072 37.2641C26.1987 37.7121 26.3028 38.1921 26.2195 38.7041C26.1361 39.2161 25.8965 39.642 25.5006 39.982C25.6996 40.3668 25.7507 40.7733 25.6539 41.2014C25.5571 41.6295 25.3245 41.9635 24.956 42.2034C24.7753 42.3209 24.5778 42.4007 24.3633 42.4425C24.1488 42.4844 23.9366 42.4862 23.7266 42.4481C23.6693 42.6602 23.5798 42.8547 23.4583 43.0315C23.3368 43.2083 23.1858 43.3555 23.0051 43.4731ZM20.2522 36.1616L23.4971 41.1471C23.5958 41.2989 23.7317 41.393 23.9046 41.4296C24.0776 41.4662 24.2399 41.4351 24.3917 41.3363C24.5362 41.2423 24.6232 41.1034 24.6527 40.9196C24.6822 40.7358 24.6536 40.5693 24.5668 40.42C24.3774 40.461 24.1878 40.4739 23.9978 40.4586C23.8079 40.4434 23.6177 40.4 23.4272 40.3286C23.2891 40.2744 23.1915 40.1837 23.1343 40.0563C23.0771 39.929 23.0756 39.7962 23.1297 39.6581C23.1838 39.5201 23.2746 39.4224 23.4019 39.3652C23.5293 39.3081 23.662 39.3065 23.8001 39.3607C23.9548 39.4245 24.1136 39.4472 24.2764 39.4287C24.4392 39.4102 24.5929 39.3539 24.7374 39.2598C24.9758 39.1046 25.1247 38.8869 25.184 38.6066C25.2432 38.3263 25.1953 38.0669 25.0401 37.8285C25.0166 37.7923 24.9913 37.7574 24.9642 37.7236C24.937 37.6898 24.9045 37.6596 24.8665 37.6329C24.7907 37.7851 24.6941 37.9251 24.5767 38.0529C24.4594 38.1807 24.3248 38.294 24.1731 38.3928C24.0502 38.4727 23.9202 38.4982 23.7831 38.4692C23.6459 38.4402 23.5373 38.3642 23.4574 38.2414C23.3774 38.1186 23.352 37.9886 23.381 37.8514C23.41 37.7142 23.4859 37.6057 23.6087 37.5257C23.8472 37.3705 23.996 37.1528 24.0553 36.8725C24.1146 36.5922 24.0667 36.3328 23.9115 36.0944C23.7563 35.8559 23.5397 35.7089 23.2618 35.6532C22.9838 35.5975 22.7233 35.6437 22.4801 35.7916C22.4853 35.9734 22.4564 36.1542 22.3934 36.3341C22.3305 36.5139 22.2419 36.6821 22.1278 36.8387C22.0404 36.9573 21.9261 37.0265 21.7848 37.0465C21.6435 37.0665 21.5172 37.0304 21.4058 36.9383C21.2944 36.8462 21.2269 36.7307 21.2034 36.5917C21.1798 36.4528 21.2141 36.3276 21.3062 36.2163C21.391 36.1096 21.4372 35.987 21.4447 35.8484C21.4522 35.7098 21.416 35.579 21.3361 35.4562C21.2373 35.3045 21.1014 35.2103 20.9285 35.1737C20.7555 35.1372 20.5932 35.1682 20.4415 35.267C20.2897 35.3658 20.1956 35.5016 20.159 35.6746C20.1224 35.8475 20.1535 36.0099 20.2522 36.1616ZM22.63 41.7114L19.3852 36.7259C19.2864 36.5742 19.1506 36.48 18.9776 36.4434C18.8047 36.4069 18.6423 36.4379 18.4906 36.5367C18.3389 36.6355 18.2447 36.7713 18.2081 36.9443C18.1715 37.1172 18.2026 37.2796 18.3014 37.4313C18.3766 37.5469 18.4785 37.6323 18.607 37.6875C18.7355 37.7428 18.8657 37.7532 18.9976 37.7188C19.1368 37.6796 19.2669 37.6978 19.388 37.7733C19.5091 37.8487 19.5892 37.956 19.6283 38.0951C19.6602 38.239 19.6384 38.3714 19.563 38.4926C19.4875 38.6137 19.3779 38.6902 19.2341 38.7221C19.0447 38.763 18.8551 38.7759 18.6651 38.7606C18.4752 38.7454 18.2982 38.6986 18.134 38.6203C17.9075 38.778 17.7646 38.997 17.7054 39.2773C17.6461 39.5576 17.6917 39.8134 17.8421 40.0446C17.9973 40.283 18.2151 40.4319 18.4954 40.4912C18.7757 40.5504 19.0351 40.5025 19.2735 40.3473C19.3963 40.2674 19.5263 40.2419 19.6635 40.2709C19.8007 40.2999 19.9092 40.3758 19.9892 40.4987C20.0691 40.6215 20.0946 40.7515 20.0656 40.8887C20.0366 41.0258 19.9607 41.1344 19.8378 41.2143C19.6861 41.3131 19.528 41.3903 19.3636 41.4458C19.1992 41.5014 19.0321 41.533 18.8622 41.5407C18.8713 41.5863 18.8858 41.6283 18.9057 41.6668C18.9256 41.7052 18.9473 41.7425 18.9708 41.7787C19.126 42.0171 19.3437 42.166 19.624 42.2252C19.9043 42.2845 20.1637 42.2366 20.4021 42.0814C20.5466 41.9873 20.6603 41.8696 20.7432 41.7283C20.8261 41.5869 20.8696 41.4326 20.8738 41.2652C20.8803 41.1171 20.9354 40.9963 21.0392 40.903C21.1431 40.8097 21.2691 40.7663 21.4173 40.7727C21.5655 40.7791 21.6862 40.8342 21.7795 40.9381C21.8728 41.0419 21.9163 41.1679 21.9098 41.3161C21.898 41.5192 21.86 41.7137 21.7958 41.8995C21.7316 42.0853 21.6424 42.2565 21.5283 42.413C21.6296 42.5528 21.7709 42.6435 21.9521 42.6849C22.1334 42.7264 22.2963 42.7001 22.4408 42.606C22.5925 42.5073 22.6867 42.3714 22.7233 42.1985C22.7599 42.0255 22.7288 41.8632 22.63 41.7114Z" fill="#5FE3C0"/>
</g>
</g>
</g>
<defs>
<filter id="filter0_dddd_14601_36911" x="1.47934" y="1.47934" width="64.8099" height="69.5041" filterUnits="userSpaceOnUse" color-interpolation-filters="sRGB">
<feFlood flood-opacity="0" result="BackgroundImageFix"/>
<feColorMatrix in="SourceAlpha" type="matrix" values="0 0 0 0 0 0 0 0 0 0 0 0 0 0 0 0 0 0 127 0" result="hardAlpha"/>
<feOffset dx="0.347107" dy="0.347107"/>
<feGaussianBlur stdDeviation="0.433884"/>
<feColorMatrix type="matrix" values="0 0 0 0 0.384314 0 0 0 0 0.490196 0 0 0 0 0.596078 0 0 0 0.1 0"/>
<feBlend mode="normal" in2="BackgroundImageFix" result="effect1_dropShadow_14601_36911"/>
<feColorMatrix in="SourceAlpha" type="matrix" values="0 0 0 0 0 0 0 0 0 0 0 0 0 0 0 0 0 0 127 0" result="hardAlpha"/>
<feOffset dx="1.21488" dy="1.21488"/>
<feGaussianBlur stdDeviation="0.867769"/>
<feColorMatrix type="matrix" values="0 0 0 0 0.384314 0 0 0 0 0.490196 0 0 0 0 0.596078 0 0 0 0.09 0"/>
<feBlend mode="normal" in2="effect1_dropShadow_14601_36911" result="effect2_dropShadow_14601_36911"/>
<feColorMatrix in="SourceAlpha" type="matrix" values="0 0 0 0 0 0 0 0 0 0 0 0 0 0 0 0 0 0 127 0" result="hardAlpha"/>
<feOffset dx="2.60331" dy="2.95041"/>
<feGaussianBlur stdDeviation="1.1281"/>
<feColorMatrix type="matrix" values="0 0 0 0 0.384314 0 0 0 0 0.490196 0 0 0 0 0.596078 0 0 0 0.05 0"/>
<feBlend mode="normal" in2="effect2_dropShadow_14601_36911" result="effect3_dropShadow_14601_36911"/>
<feColorMatrix in="SourceAlpha" type="matrix" values="0 0 0 0 0 0 0 0 0 0 0 0 0 0 0 0 0 0 127 0" result="hardAlpha"/>
<feOffset dx="4.5124" dy="5.20661"/>
<feGaussianBlur stdDeviation="1.38843"/>
<feColorMatrix type="matrix" values="0 0 0 0 0.384314 0 0 0 0 0.490196 0 0 0 0 0.596078 0 0 0 0.01 0"/>
<feBlend mode="normal" in2="effect3_dropShadow_14601_36911" result="effect4_dropShadow_14601_36911"/>
<feBlend mode="normal" in="SourceGraphic" in2="effect4_dropShadow_14601_36911" result="shape"/>
</filter>
<filter id="filter1_dddd_14601_36911" x="21.5892" y="2.91924" width="40.3336" height="46.0316" filterUnits="userSpaceOnUse" color-interpolation-filters="sRGB">
<feFlood flood-opacity="0" result="BackgroundImageFix"/>
<feColorMatrix in="SourceAlpha" type="matrix" values="0 0 0 0 0 0 0 0 0 0 0 0 0 0 0 0 0 0 127 0" result="hardAlpha"/>
<feOffset/>
<feGaussianBlur stdDeviation="0.179051"/>
<feColorMatrix type="matrix" values="0 0 0 0 0.384314 0 0 0 0 0.490196 0 0 0 0 0.596078 0 0 0 0.1 0"/>
<feBlend mode="normal" in2="BackgroundImageFix" result="effect1_dropShadow_14601_36911"/>
<feColorMatrix in="SourceAlpha" type="matrix" values="0 0 0 0 0 0 0 0 0 0 0 0 0 0 0 0 0 0 127 0" result="hardAlpha"/>
<feOffset dx="0.358101" dy="0.716203"/>
<feGaussianBlur stdDeviation="0.358101"/>
<feColorMatrix type="matrix" values="0 0 0 0 0.384314 0 0 0 0 0.490196 0 0 0 0 0.596078 0 0 0 0.09 0"/>
<feBlend mode="normal" in2="effect1_dropShadow_14601_36911" result="effect2_dropShadow_14601_36911"/>
<feColorMatrix in="SourceAlpha" type="matrix" values="0 0 0 0 0 0 0 0 0 0 0 0 0 0 0 0 0 0 127 0" result="hardAlpha"/>
<feOffset dx="1.0743" dy="1.43241"/>
<feGaussianBlur stdDeviation="0.537152"/>
<feColorMatrix type="matrix" values="0 0 0 0 0.384314 0 0 0 0 0.490196 0 0 0 0 0.596078 0 0 0 0.05 0"/>
<feBlend mode="normal" in2="effect2_dropShadow_14601_36911" result="effect3_dropShadow_14601_36911"/>
<feColorMatrix in="SourceAlpha" type="matrix" values="0 0 0 0 0 0 0 0 0 0 0 0 0 0 0 0 0 0 127 0" result="hardAlpha"/>
<feOffset dx="2.14861" dy="2.50671"/>
<feGaussianBlur stdDeviation="0.716203"/>
<feColorMatrix type="matrix" values="0 0 0 0 0.384314 0 0 0 0 0.490196 0 0 0 0 0.596078 0 0 0 0.01 0"/>
<feBlend mode="normal" in2="effect3_dropShadow_14601_36911" result="effect4_dropShadow_14601_36911"/>
<feBlend mode="normal" in="SourceGraphic" in2="effect4_dropShadow_14601_36911" result="shape"/>
</filter>
<filter id="filter2_dddd_14601_36911" x="1.6419" y="16.7903" width="43.3141" height="47.1488" filterUnits="userSpaceOnUse" color-interpolation-filters="sRGB">
<feFlood flood-opacity="0" result="BackgroundImageFix"/>
<feColorMatrix in="SourceAlpha" type="matrix" values="0 0 0 0 0 0 0 0 0 0 0 0 0 0 0 0 0 0 127 0" result="hardAlpha"/>
<feOffset/>
<feGaussianBlur stdDeviation="0.179051"/>
<feColorMatrix type="matrix" values="0 0 0 0 0.384314 0 0 0 0 0.490196 0 0 0 0 0.596078 0 0 0 0.1 0"/>
<feBlend mode="normal" in2="BackgroundImageFix" result="effect1_dropShadow_14601_36911"/>
<feColorMatrix in="SourceAlpha" type="matrix" values="0 0 0 0 0 0 0 0 0 0 0 0 0 0 0 0 0 0 127 0" result="hardAlpha"/>
<feOffset dx="0.358101" dy="0.716203"/>
<feGaussianBlur stdDeviation="0.358101"/>
<feColorMatrix type="matrix" values="0 0 0 0 0.384314 0 0 0 0 0.490196 0 0 0 0 0.596078 0 0 0 0.09 0"/>
<feBlend mode="normal" in2="effect1_dropShadow_14601_36911" result="effect2_dropShadow_14601_36911"/>
<feColorMatrix in="SourceAlpha" type="matrix" values="0 0 0 0 0 0 0 0 0 0 0 0 0 0 0 0 0 0 127 0" result="hardAlpha"/>
<feOffset dx="1.0743" dy="1.43241"/>
<feGaussianBlur stdDeviation="0.537152"/>
<feColorMatrix type="matrix" values="0 0 0 0 0.384314 0 0 0 0 0.490196 0 0 0 0 0.596078 0 0 0 0.05 0"/>
<feBlend mode="normal" in2="effect2_dropShadow_14601_36911" result="effect3_dropShadow_14601_36911"/>
<feColorMatrix in="SourceAlpha" type="matrix" values="0 0 0 0 0 0 0 0 0 0 0 0 0 0 0 0 0 0 127 0" result="hardAlpha"/>
<feOffset dx="2.14861" dy="2.50671"/>
<feGaussianBlur stdDeviation="0.716203"/>
<feColorMatrix type="matrix" values="0 0 0 0 0.384314 0 0 0 0 0.490196 0 0 0 0 0.596078 0 0 0 0.01 0"/>
<feBlend mode="normal" in2="effect3_dropShadow_14601_36911" result="effect4_dropShadow_14601_36911"/>
<feBlend mode="normal" in="SourceGraphic" in2="effect4_dropShadow_14601_36911" result="shape"/>
</filter>
<clipPath id="clip0_14601_36911">
<rect width="61" height="65" fill="white"/>
</clipPath>
</defs>
</svg>
