<svg width="62" height="65" viewBox="0 0 62 65" fill="none" xmlns="http://www.w3.org/2000/svg">
<rect x="2.7064" y="2.2064" width="18.5761" height="19.8145" fill="#F8FAFB"/>
<rect x="2.7064" y="2.2064" width="18.5761" height="19.8145" stroke="#F0F4F8" stroke-width="0.412802"/>
<path d="M11.8776 10.3306C12.1506 10.3306 12.3925 10.3736 12.6032 10.4596C12.8139 10.5456 12.9784 10.6724 13.0966 10.8401C13.217 11.0057 13.2772 11.2099 13.2772 11.4529C13.2772 11.6442 13.2353 11.8119 13.1514 11.956C13.0697 12.0979 12.959 12.2226 12.8193 12.3301C12.6795 12.4354 12.5247 12.53 12.3549 12.6139C12.557 12.7063 12.7386 12.8106 12.8999 12.9267C13.0633 13.0428 13.1923 13.1793 13.2869 13.3363C13.3815 13.4932 13.4288 13.6792 13.4288 13.8942C13.4288 14.1587 13.3643 14.3877 13.2353 14.5812C13.1084 14.7725 12.93 14.9198 12.6999 15.023C12.4699 15.1262 12.2001 15.1778 11.8905 15.1778C11.5572 15.1778 11.2734 15.1283 11.039 15.0294C10.8068 14.9284 10.6295 14.7843 10.5069 14.5973C10.3865 14.4081 10.3263 14.1813 10.3263 13.9168C10.3263 13.6996 10.3725 13.5115 10.465 13.3524C10.5574 13.1912 10.68 13.0525 10.8326 12.9364C10.9853 12.8203 11.1519 12.7225 11.3325 12.6429C11.1756 12.5569 11.0315 12.4591 10.9004 12.3494C10.7714 12.2398 10.6682 12.1119 10.5908 11.9657C10.5155 11.8173 10.4779 11.6453 10.4779 11.4497C10.4779 11.211 10.5381 11.0089 10.6585 10.8434C10.781 10.6757 10.9477 10.5488 11.1584 10.4628C11.3712 10.3747 11.6109 10.3306 11.8776 10.3306ZM10.852 13.92C10.852 14.1608 10.9369 14.3597 11.1068 14.5167C11.2766 14.6715 11.5335 14.7489 11.8776 14.7489C12.2044 14.7489 12.457 14.6715 12.6354 14.5167C12.8139 14.3597 12.9031 14.1544 12.9031 13.9007C12.9031 13.7437 12.8623 13.6061 12.7806 13.4879C12.6989 13.3675 12.5828 13.26 12.4323 13.1654C12.2818 13.0708 12.1044 12.9848 11.9001 12.9074L11.784 12.8654C11.5862 12.9471 11.4174 13.0385 11.2777 13.1396C11.1401 13.2385 11.0347 13.3513 10.9616 13.4782C10.8885 13.605 10.852 13.7523 10.852 13.92ZM11.8711 10.7692C11.6174 10.7692 11.4099 10.8305 11.2487 10.953C11.0874 11.0734 11.0068 11.2476 11.0068 11.4755C11.0068 11.6389 11.0455 11.7775 11.1229 11.8915C11.2024 12.0033 11.3099 12.1 11.4454 12.1817C11.5808 12.2613 11.7324 12.3355 11.9001 12.4043C12.0635 12.3355 12.2087 12.2602 12.3355 12.1785C12.4624 12.0947 12.5623 11.9958 12.6354 11.8818C12.7085 11.7679 12.7451 11.6313 12.7451 11.4722C12.7451 11.2443 12.6645 11.0702 12.5032 10.9498C12.3441 10.8294 12.1334 10.7692 11.8711 10.7692Z" fill="#243B53"/>
<rect x="21.6947" y="2.2064" width="18.1633" height="19.8145" fill="#F8FAFB"/>
<rect x="21.6947" y="2.2064" width="18.1633" height="19.8145" stroke="#F0F4F8" stroke-width="0.412802"/>
<rect x="40.2709" y="2.2064" width="18.5761" height="19.8145" fill="#F8FAFB"/>
<rect x="40.2709" y="2.2064" width="18.5761" height="19.8145" stroke="#F0F4F8" stroke-width="0.412802"/>
<rect x="2.7064" y="22.433" width="18.5761" height="20.2273" fill="#F8FAFB"/>
<rect x="2.7064" y="22.433" width="18.5761" height="20.2273" stroke="#F0F4F8" stroke-width="0.412802"/>
<rect x="21.6947" y="22.433" width="18.1633" height="20.2273" fill="#F8FAFB"/>
<rect x="21.6947" y="22.433" width="18.1633" height="20.2273" stroke="#F0F4F8" stroke-width="0.412802"/>
<rect x="40.2709" y="22.433" width="18.5761" height="20.2273" fill="#F8FAFB"/>
<rect x="40.2709" y="22.433" width="18.5761" height="20.2273" stroke="#F0F4F8" stroke-width="0.412802"/>
<path d="M50.7997 31.9316C50.7997 32.1423 50.7589 32.3251 50.6772 32.4799C50.5955 32.6347 50.4815 32.7615 50.3353 32.8604C50.1891 32.9572 50.0171 33.0249 49.8193 33.0636V33.0894C50.1934 33.1367 50.474 33.2571 50.6611 33.4506C50.8503 33.6441 50.9449 33.8978 50.9449 34.2117C50.9449 34.4848 50.8804 34.7266 50.7514 34.9373C50.6245 35.148 50.4289 35.3136 50.1644 35.434C49.9021 35.5523 49.5656 35.6114 49.155 35.6114C48.9056 35.6114 48.6744 35.591 48.4616 35.5501C48.2509 35.5114 48.0488 35.4458 47.8553 35.3534V34.8503C48.0509 34.947 48.2638 35.0233 48.4938 35.0792C48.7239 35.133 48.9464 35.1599 49.1614 35.1599C49.5914 35.1599 49.9021 35.0749 50.0935 34.9051C50.2848 34.7331 50.3805 34.4987 50.3805 34.202C50.3805 33.9978 50.3267 33.8333 50.2192 33.7086C50.1139 33.5818 49.9612 33.4893 49.7613 33.4313C49.5635 33.3711 49.3248 33.341 49.0453 33.341H48.5745V32.883H49.0486C49.3044 32.883 49.5216 32.8454 49.7 32.7701C49.8785 32.6949 50.0139 32.5895 50.1064 32.4541C50.201 32.3165 50.2483 32.1542 50.2483 31.9671C50.2483 31.7285 50.1687 31.5446 50.0096 31.4156C49.8505 31.2845 49.6344 31.2189 49.3614 31.2189C49.1937 31.2189 49.041 31.2361 48.9034 31.2705C48.7658 31.3049 48.6368 31.3522 48.5164 31.4124C48.396 31.4726 48.2756 31.5425 48.1552 31.622L47.8843 31.2544C48.0563 31.1211 48.2659 31.0061 48.5132 30.9093C48.7605 30.8125 49.041 30.7642 49.3549 30.7642C49.8365 30.7642 50.1977 30.8738 50.4385 31.0931C50.6793 31.3124 50.7997 31.5919 50.7997 31.9316Z" fill="#243B53"/>
<rect x="2.7064" y="43.0736" width="18.5761" height="19.8145" fill="#F8FAFB"/>
<rect x="2.7064" y="43.0736" width="18.5761" height="19.8145" stroke="#F0F4F8" stroke-width="0.412802"/>
<rect x="21.6947" y="43.0736" width="18.1633" height="19.8145" fill="#F8FAFB"/>
<rect x="21.6947" y="43.0736" width="18.1633" height="19.8145" stroke="#F0F4F8" stroke-width="0.412802"/>
<rect x="40.2709" y="43.0736" width="18.5761" height="19.8145" fill="#F8FAFB"/>
<rect x="40.2709" y="43.0736" width="18.5761" height="19.8145" stroke="#F0F4F8" stroke-width="0.412802"/>
</svg>
