<svg width="63" height="67" viewBox="0 0 63 67" fill="none" xmlns="http://www.w3.org/2000/svg">
<rect x="2.08678" y="2.08678" width="19.0909" height="20.8264" fill="#F8FAFB"/>
<rect x="2.08678" y="2.08678" width="19.0909" height="20.8264" stroke="#F0F4F8" stroke-width="0.173554"/>
<rect width="19.2645" height="0.173554" transform="translate(2 22.8281)" fill="#486581"/>
<rect width="21" height="0.173554" transform="matrix(0 -1 1 0 21.2637 23)" fill="#486581"/>
<rect x="21.5243" y="2.08678" width="19.0909" height="20.8264" fill="#F8FAFB"/>
<rect x="21.5243" y="2.08678" width="19.0909" height="20.8264" stroke="#F0F4F8" stroke-width="0.173554"/>
<rect width="19.2645" height="0.173554" transform="translate(21.4375 22.8281)" fill="#486581"/>
<rect width="21" height="0.173554" transform="matrix(0 -1 1 0 40.7012 23)" fill="#486581"/>
<rect x="40.9618" y="2.08678" width="19.0909" height="20.8264" fill="#F8FAFB"/>
<rect x="40.9618" y="2.08678" width="19.0909" height="20.8264" stroke="#F0F4F8" stroke-width="0.173554"/>
<circle cx="50.5074" cy="12.4996" r="4.68595" stroke="#243B53" stroke-width="1.04132"/>
<rect width="19.2645" height="0.173554" transform="translate(40.875 22.8281)" fill="#486581"/>
<rect x="2.08678" y="23.0868" width="19.0909" height="20.8264" fill="#F8FAFB"/>
<rect x="2.08678" y="23.0868" width="19.0909" height="20.8264" stroke="#F0F4F8" stroke-width="0.173554"/>
<rect width="19.2645" height="0.173554" transform="translate(2 43.8281)" fill="#486581"/>
<rect width="21" height="0.173554" transform="matrix(0 -1 1 0 21.2637 44)" fill="#486581"/>
<rect x="21.5243" y="23.0868" width="19.0909" height="20.8264" fill="#F8FAFB"/>
<rect x="21.5243" y="23.0868" width="19.0909" height="20.8264" stroke="#F0F4F8" stroke-width="0.173554"/>
<path d="M36.2765 29.3417L35.2277 28.293L31.0699 32.4508L26.912 28.293L25.8633 29.3417L30.0211 33.4996L25.8633 37.6574L26.912 38.7062L31.0699 34.5483L35.2277 38.7062L36.2765 37.6574L32.1187 33.4996L36.2765 29.3417Z" fill="#243B53"/>
<rect width="19.2645" height="0.173554" transform="translate(21.4375 43.8281)" fill="#486581"/>
<rect width="21" height="0.173554" transform="matrix(0 -1 1 0 40.7012 44)" fill="#486581"/>
<rect x="40.9618" y="23.0868" width="19.0909" height="20.8264" fill="#F8FAFB"/>
<rect x="40.9618" y="23.0868" width="19.0909" height="20.8264" stroke="#F0F4F8" stroke-width="0.173554"/>
<rect width="19.2645" height="0.173554" transform="translate(40.875 43.8281)" fill="#486581"/>
<rect x="2.08678" y="44.0868" width="19.0909" height="20.8264" fill="#F8FAFB"/>
<rect x="2.08678" y="44.0868" width="19.0909" height="20.8264" stroke="#F0F4F8" stroke-width="0.173554"/>
<rect width="21" height="0.173554" transform="matrix(0 -1 1 0 21.2637 65)" fill="#486581"/>
<rect x="21.5243" y="44.0868" width="19.0909" height="20.8264" fill="#F8FAFB"/>
<rect x="21.5243" y="44.0868" width="19.0909" height="20.8264" stroke="#F0F4F8" stroke-width="0.173554"/>
<rect width="21" height="0.173554" transform="matrix(0 -1 1 0 40.7012 65)" fill="#486581"/>
<rect x="40.9618" y="44.0868" width="19.0909" height="20.8264" fill="#F8FAFB"/>
<rect x="40.9618" y="44.0868" width="19.0909" height="20.8264" stroke="#F0F4F8" stroke-width="0.173554"/>
</svg>
