<svg width="61" height="65" viewBox="0 0 61 65" fill="none" xmlns="http://www.w3.org/2000/svg">
<rect x="4.79325" y="12.139" width="51.4135" height="16.1188" rx="4.30762" fill="#FCFCFC"/>
<rect x="4.79325" y="12.139" width="51.4135" height="16.1188" rx="4.30762" stroke="#D9E2EC" stroke-width="0.277911"/>
<path d="M12.006 22.2227V15.9089H13.2913V21.1501H16.4873V22.2227H12.006Z" fill="#1F2933"/>
<path d="M25.5873 20.5812H24.48C24.4771 20.422 24.4756 20.325 24.4756 20.2903C24.4756 19.9313 24.535 19.6361 24.6537 19.4045C24.7724 19.1729 25.0097 18.9123 25.3658 18.6228C25.7219 18.3334 25.9347 18.1437 26.0041 18.054C26.1113 17.9121 26.1648 17.7558 26.1648 17.585C26.1648 17.3476 26.0693 17.145 25.8782 16.9771C25.69 16.8063 25.4353 16.7209 25.114 16.7209C24.8042 16.7209 24.5451 16.8092 24.3367 16.9858C24.1282 17.1624 23.985 17.4316 23.9068 17.7935L22.7865 17.6545C22.8183 17.1363 23.0383 16.6963 23.4465 16.3344C23.8576 15.9726 24.396 15.7916 25.0619 15.7916C25.7624 15.7916 26.3197 15.9755 26.7337 16.3431C27.1476 16.7079 27.3546 17.1334 27.3546 17.6198C27.3546 17.889 27.2779 18.1437 27.1245 18.384C26.9739 18.6243 26.6497 18.9514 26.1518 19.3654C25.8941 19.5796 25.7335 19.7519 25.6698 19.8821C25.609 20.0124 25.5815 20.2454 25.5873 20.5812ZM24.48 22.2227V21.0025H25.7002V22.2227H24.48Z" fill="#5FE3C0"/>
<path d="M35.5992 22.2227L33.3238 15.8568H34.7177L36.3287 20.5682L37.8876 15.8568H39.2511L36.9714 22.2227H35.5992Z" fill="#1F2933"/>
<path d="M44.979 22.2227V15.8568H49.6992V16.9337H46.2644V18.3449H49.4604V19.4175H46.2644V21.1501H49.8208V22.2227H44.979Z" fill="#1F2933"/>
<line x1="21.8848" y1="25.755" x2="27.9988" y2="25.755" stroke="#1F2933" stroke-width="0.833732"/>
<rect x="6.7176" y="40.1082" width="12.7099" height="11.2467" rx="2.7056" fill="#F9F9F8"/>
<rect x="6.7176" y="40.1082" width="12.7099" height="11.2467" rx="2.7056" stroke="#E4E7EB" stroke-width="0.216448"/>
<path d="M10.5897 47.7305V42.7725H11.5908V44.9741L13.6132 42.7725H14.9593L13.0924 44.7036L15.0607 47.7305H13.7654L12.4025 45.4037L11.5908 46.2322V47.7305H10.5897Z" fill="#102A43"/>
<rect x="24.6453" y="40.1082" width="12.7099" height="11.2467" rx="2.7056" fill="#F9F9F8"/>
<rect x="24.6453" y="40.1082" width="12.7099" height="11.2467" rx="2.7056" stroke="#E4E7EB" stroke-width="0.216448"/>
<path d="M28.301 45.2819C28.301 44.7769 28.3765 44.353 28.5276 44.0103C28.6403 43.7577 28.7936 43.5312 28.9875 43.3305C29.1837 43.1298 29.3979 42.981 29.6301 42.8841C29.939 42.7533 30.2952 42.6879 30.6988 42.6879C31.4293 42.6879 32.0133 42.9145 32.4507 43.3677C32.8904 43.8209 33.1102 44.4511 33.1102 45.2582C33.1102 46.0586 32.8926 46.6854 32.4575 47.1386C32.0223 47.5896 31.4406 47.815 30.7124 47.815C29.9751 47.815 29.3889 47.5907 28.9537 47.142C28.5186 46.6911 28.301 46.071 28.301 45.2819ZM29.3325 45.2481C29.3325 45.8095 29.4622 46.2356 29.7214 46.5265C29.9807 46.8151 30.3099 46.9594 30.709 46.9594C31.1081 46.9594 31.435 46.8162 31.6898 46.5299C31.9468 46.2413 32.0753 45.8095 32.0753 45.2346C32.0753 44.6664 31.9502 44.2425 31.6999 43.9629C31.4519 43.6833 31.1216 43.5436 30.709 43.5436C30.2964 43.5436 29.9638 43.6856 29.7113 43.9697C29.4588 44.2515 29.3325 44.6777 29.3325 45.2481Z" fill="#102A43"/>
<rect x="42.5711" y="40.1082" width="11.7099" height="11.2467" rx="2.7056" fill="#F9F9F8"/>
<rect x="42.5711" y="40.1082" width="11.7099" height="11.2467" rx="2.7056" stroke="#E4E7EB" stroke-width="0.216448"/>
<path d="M46.4297 47.7305V42.7725H48.0361C48.6449 42.7725 49.0417 42.7973 49.2266 42.8469C49.5107 42.9213 49.7486 43.0836 49.9402 43.3339C50.1319 43.5819 50.2277 43.9032 50.2277 44.2977C50.2277 44.6021 50.1724 44.858 50.062 45.0655C49.9515 45.2729 49.8106 45.4363 49.6392 45.5558C49.4701 45.6731 49.2976 45.7509 49.1218 45.7892C48.8828 45.8365 48.5367 45.8602 48.0835 45.8602H47.4308V47.7305H46.4297ZM47.4308 43.6112V45.0181H47.9787C48.3732 45.0181 48.637 44.9922 48.77 44.9403C48.9031 44.8885 49.0068 44.8073 49.0812 44.6968C49.1578 44.5863 49.1962 44.4578 49.1962 44.3113C49.1962 44.1309 49.1432 43.9821 49.0372 43.8648C48.9313 43.7476 48.7971 43.6743 48.6348 43.645C48.5153 43.6225 48.2751 43.6112 47.9144 43.6112H47.4308Z" fill="#102A43"/>
</svg>
