<svg width="151" height="150" viewBox="0 0 151 150" fill="none" xmlns="http://www.w3.org/2000/svg">
<rect x="0.5" width="150" height="150" rx="75" fill="#EAE2F8"/>
<g clip-path="url(#clip0_12182_16596)">
<path d="M98.917 97.8698C92.7295 97.8698 88.8337 99.7948 85.3962 101.536C82.417 103.049 79.9878 104.286 76.0003 104.286C71.8753 104.286 69.5837 103.141 66.6045 101.536C63.167 99.7948 59.4087 97.8698 53.0837 97.8698C46.7587 97.8698 43.0003 99.7948 39.5628 101.536C36.5837 103.049 34.2003 104.286 30.167 104.286V113.224C36.3545 113.224 40.2503 111.299 43.6878 109.557C46.667 108.045 49.0503 106.807 53.0837 106.807C57.117 106.807 59.5003 107.953 62.4795 109.557C65.917 111.299 69.6753 113.224 76.0003 113.224C82.3253 113.224 86.0837 111.299 89.5212 109.557C92.5003 108.045 94.9295 106.807 98.917 106.807C103.042 106.807 105.334 107.953 108.313 109.557C111.75 111.299 115.554 113.224 121.834 113.224V104.286C117.709 104.286 115.417 103.141 112.438 101.536C109 99.7948 105.104 97.8698 98.917 97.8698ZM98.917 77.4739C92.7295 77.4739 88.8337 79.4448 85.3962 81.1406C82.417 82.6073 79.9878 83.8906 76.0003 83.8906C71.8753 83.8906 69.5837 82.7448 66.6045 81.1406C63.167 79.3989 59.4087 77.4739 53.0837 77.4739C46.7587 77.4739 43.0003 79.4448 39.5628 81.1406C36.5837 82.6073 34.2003 83.8906 30.167 83.8906V92.8281C36.3545 92.8281 40.2503 90.8573 43.6878 89.1614C46.667 87.5573 48.9587 86.4114 53.0837 86.4114C57.2087 86.4114 59.5003 87.5573 62.4795 89.1614C65.917 90.9031 69.6753 92.8281 76.0003 92.8281C82.3253 92.8281 86.0837 90.8573 89.5212 89.1614C92.5003 87.5573 94.792 86.4114 98.917 86.4114C103.042 86.4114 105.334 87.5573 108.313 89.1614C111.75 90.9031 115.554 92.8281 121.834 92.8281V83.8906C117.709 83.8906 115.417 82.7448 112.438 81.1406C109 79.3989 105.104 77.4739 98.917 77.4739ZM112.438 40.4406C109 38.6989 105.196 36.7739 98.917 36.7739C92.6378 36.7739 88.8337 38.6989 85.3962 40.4406C82.417 41.9073 79.9878 43.1906 76.0003 43.1906C71.8753 43.1906 69.5837 42.0448 66.6045 40.4406C63.167 38.7448 59.4087 36.7739 53.0837 36.7739C46.7587 36.7739 43.0003 38.6989 39.5628 40.4406C36.5837 41.9531 34.2003 43.1906 30.167 43.1906V52.0364C36.3545 52.0364 40.2503 50.0656 43.6878 48.3698C46.667 46.8573 49.0503 45.6198 53.0837 45.6198C57.117 45.6198 59.5003 46.7656 62.4795 48.3698C65.917 50.1114 69.6753 52.0364 76.0003 52.0364C82.3253 52.0364 86.0837 50.0656 89.5212 48.3698C92.5003 46.9031 94.9295 45.6198 98.917 45.6198C103.042 45.6198 105.334 46.7656 108.313 48.3698C111.75 50.1114 115.554 52.0364 121.834 52.0364V43.0989C117.709 43.0989 115.417 41.9531 112.438 40.4406V40.4406ZM98.917 57.0781C92.7295 57.0781 88.8337 59.0489 85.3962 60.7448C82.417 62.3489 80.1253 63.4948 76.0003 63.4948C71.8753 63.4948 69.5837 62.3489 66.6045 60.7448C63.167 59.0031 59.4087 57.0781 53.0837 57.0781C46.7587 57.0781 43.0003 59.0489 39.5628 60.7448C36.5837 62.3489 34.292 63.4948 30.167 63.4948V72.4323C36.3545 72.4323 40.2503 70.4614 43.6878 68.7656C46.667 67.2989 49.0962 66.0156 53.0837 66.0156C57.0712 66.0156 59.5003 67.1614 62.4795 68.7656C65.917 70.5073 69.6753 72.4323 76.0003 72.4323C82.3253 72.4323 86.0837 70.4614 89.5212 68.7656C92.5003 67.2989 94.9295 66.0156 98.917 66.0156C103.042 66.0156 105.334 67.1614 108.313 68.7656C111.75 70.5073 115.554 72.4323 121.834 72.4323V63.4948C117.709 63.4948 115.417 62.3489 112.438 60.7448C109 59.0031 105.104 57.0781 98.917 57.0781Z" fill="#653CAD"/>
</g>
<defs>
<clipPath id="clip0_12182_16596">
<rect width="110" height="110" fill="white" transform="translate(21 20)"/>
</clipPath>
</defs>
</svg>
