<svg width="151" height="150" viewBox="0 0 151 150" fill="none" xmlns="http://www.w3.org/2000/svg">
<rect x="0.5" width="150" height="150" rx="75" fill="#EAE2F8"/>
<path d="M49 115C46.5 115 44.375 114.125 42.625 112.375C40.875 110.625 40 108.5 40 106C40 104.25 40.5 102.604 41.5 101.062C42.5 99.5208 43.8333 98.4167 45.5 97.75L65 90V78.75C60.5 84 55.2708 88.0208 49.3125 90.8125C43.3542 93.6042 36.9167 95 30 95V85C35.6667 85 40.8125 83.8333 45.4375 81.5C50.0625 79.1667 54.25 75.8333 58 71.5L64.75 63.5C65.75 62.3333 66.9167 61.4583 68.25 60.875C69.5833 60.2917 71 60 72.5 60H77.5C79 60 80.4167 60.2917 81.75 60.875C83.0833 61.4583 84.25 62.3333 85.25 63.5L92 71.5C95.75 75.8333 99.9375 79.1667 104.562 81.5C109.188 83.8333 114.333 85 120 85V95C113.083 95 106.646 93.6042 100.688 90.8125C94.7292 88.0208 89.5 84 85 78.75V90L104.5 97.75C106.167 98.4167 107.5 99.5208 108.5 101.062C109.5 102.604 110 104.25 110 106C110 108.5 109.125 110.625 107.375 112.375C105.625 114.125 103.5 115 101 115H65V112.5C65 110.333 65.7083 108.542 67.125 107.125C68.5417 105.708 70.3333 105 72.5 105H87.5C88.25 105 88.8542 104.771 89.3125 104.312C89.7708 103.854 90 103.25 90 102.5C90 101.75 89.7708 101.146 89.3125 100.688C88.8542 100.229 88.25 100 87.5 100H72.5C69 100 66.0417 101.208 63.625 103.625C61.2083 106.042 60 109 60 112.5V115H49ZM75 55C72.25 55 69.8958 54.0208 67.9375 52.0625C65.9792 50.1042 65 47.75 65 45C65 42.25 65.9792 39.8958 67.9375 37.9375C69.8958 35.9792 72.25 35 75 35C77.75 35 80.1042 35.9792 82.0625 37.9375C84.0208 39.8958 85 42.25 85 45C85 47.75 84.0208 50.1042 82.0625 52.0625C80.1042 54.0208 77.75 55 75 55Z" fill="#724BB7"/>
</svg>
