<svg width="21" height="20" viewBox="0 0 21 20" fill="none" xmlns="http://www.w3.org/2000/svg">
<path d="M8 20C7.05556 20 6.24074 19.6713 5.55556 19.0139C4.87037 18.3565 4.48148 17.5648 4.38889 16.6389C3.27778 16.4907 2.35185 16 1.61111 15.1667C0.87037 14.3333 0.5 13.3519 0.5 12.2222C0.5 11.8333 0.550926 11.4491 0.652778 11.0694C0.75463 10.6898 0.907407 10.3333 1.11111 10C0.907407 9.66667 0.75463 9.31481 0.652778 8.94444C0.550926 8.57407 0.5 8.18519 0.5 7.77778C0.5 6.64815 0.87037 5.6713 1.61111 4.84722C2.35185 4.02315 3.26852 3.53704 4.36111 3.38889C4.41667 2.44444 4.7963 1.64352 5.5 0.986111C6.2037 0.328704 7.03704 0 8 0C8.48148 0 8.93056 0.0925926 9.34722 0.277778C9.76389 0.462963 10.1481 0.712963 10.5 1.02778C10.8333 0.712963 11.213 0.462963 11.6389 0.277778C12.0648 0.0925926 12.5185 0 13 0C13.963 0 14.7917 0.324074 15.4861 0.972222C16.1806 1.62037 16.5556 2.41667 16.6111 3.36111C17.7037 3.50926 18.625 4 19.375 4.83333C20.125 5.66667 20.5 6.64815 20.5 7.77778C20.5 8.18519 20.4491 8.57407 20.3472 8.94444C20.2454 9.31481 20.0926 9.66667 19.8889 10C20.0926 10.3333 20.2454 10.6898 20.3472 11.0694C20.4491 11.4491 20.5 11.8333 20.5 12.2222C20.5 13.3704 20.125 14.3565 19.375 15.1806C18.625 16.0046 17.6944 16.4907 16.5833 16.6389C16.4907 17.5648 16.1065 18.3565 15.4306 19.0139C14.7546 19.6713 13.9444 20 13 20C12.537 20 12.088 19.912 11.6528 19.7361C11.2176 19.5602 10.8333 19.3148 10.5 19C10.1481 19.3148 9.75926 19.5602 9.33333 19.7361C8.90741 19.912 8.46296 20 8 20ZM11.6111 3.61111V16.3889C11.6111 16.7778 11.7454 17.1065 12.0139 17.375C12.2824 17.6435 12.6111 17.7778 13 17.7778C13.3704 17.7778 13.6898 17.6296 13.9583 17.3333C14.2269 17.037 14.3704 16.7037 14.3889 16.3333C14 16.1852 13.6435 15.9861 13.3194 15.7361C12.9954 15.4861 12.7037 15.1852 12.4444 14.8333C12.2593 14.5741 12.1898 14.2963 12.2361 14C12.2824 13.7037 12.4352 13.463 12.6944 13.2778C12.9537 13.0926 13.2315 13.0231 13.5278 13.0694C13.8241 13.1157 14.0648 13.2685 14.25 13.5278C14.4537 13.8241 14.713 14.0509 15.0278 14.2083C15.3426 14.3657 15.6852 14.4444 16.0556 14.4444C16.6667 14.4444 17.1898 14.2269 17.625 13.7917C18.0602 13.3565 18.2778 12.8333 18.2778 12.2222C18.2778 12.1296 18.2731 12.037 18.2639 11.9444C18.2546 11.8519 18.2315 11.7593 18.1944 11.6667C17.8796 11.8519 17.5417 11.9907 17.1806 12.0833C16.8194 12.1759 16.4444 12.2222 16.0556 12.2222C15.7407 12.2222 15.4769 12.1157 15.2639 11.9028C15.0509 11.6898 14.9444 11.4259 14.9444 11.1111C14.9444 10.7963 15.0509 10.5324 15.2639 10.3194C15.4769 10.1065 15.7407 10 16.0556 10C16.6667 10 17.1898 9.78241 17.625 9.34722C18.0602 8.91204 18.2778 8.38889 18.2778 7.77778C18.2778 7.16667 18.0602 6.64815 17.625 6.22222C17.1898 5.7963 16.6667 5.57407 16.0556 5.55556C15.8519 5.88889 15.588 6.18056 15.2639 6.43056C14.9398 6.68056 14.5833 6.87963 14.1944 7.02778C13.8981 7.13889 13.6111 7.12963 13.3333 7C13.0556 6.87037 12.8704 6.65741 12.7778 6.36111C12.6852 6.06482 12.6991 5.77778 12.8194 5.5C12.9398 5.22222 13.1481 5.03704 13.4444 4.94444C13.7222 4.85185 13.9491 4.68519 14.125 4.44444C14.3009 4.2037 14.3889 3.92593 14.3889 3.61111C14.3889 3.22222 14.2546 2.89352 13.9861 2.625C13.7176 2.35648 13.3889 2.22222 13 2.22222C12.6111 2.22222 12.2824 2.35648 12.0139 2.625C11.7454 2.89352 11.6111 3.22222 11.6111 3.61111ZM9.38889 16.3889V3.61111C9.38889 3.22222 9.25463 2.89352 8.98611 2.625C8.71759 2.35648 8.38889 2.22222 8 2.22222C7.61111 2.22222 7.28241 2.35648 7.01389 2.625C6.74537 2.89352 6.61111 3.22222 6.61111 3.61111C6.61111 3.90741 6.69444 4.18056 6.86111 4.43056C7.02778 4.68056 7.25 4.85185 7.52778 4.94444C7.82407 5.03704 8.03704 5.22222 8.16667 5.5C8.2963 5.77778 8.31482 6.06482 8.22222 6.36111C8.11111 6.65741 7.91667 6.87037 7.63889 7C7.36111 7.12963 7.07407 7.13889 6.77778 7.02778C6.38889 6.87963 6.03241 6.68056 5.70833 6.43056C5.38426 6.18056 5.12037 5.88889 4.91667 5.55556C4.32407 5.57407 3.81019 5.80093 3.375 6.23611C2.93981 6.6713 2.72222 7.18519 2.72222 7.77778C2.72222 8.38889 2.93981 8.91204 3.375 9.34722C3.81019 9.78241 4.33333 10 4.94444 10C5.25926 10 5.52315 10.1065 5.73611 10.3194C5.94907 10.5324 6.05556 10.7963 6.05556 11.1111C6.05556 11.4259 5.94907 11.6898 5.73611 11.9028C5.52315 12.1157 5.25926 12.2222 4.94444 12.2222C4.55556 12.2222 4.18056 12.1759 3.81944 12.0833C3.45833 11.9907 3.12037 11.8519 2.80556 11.6667C2.76852 11.7593 2.74537 11.8519 2.73611 11.9444C2.72685 12.037 2.72222 12.1296 2.72222 12.2222C2.72222 12.8333 2.93981 13.3565 3.375 13.7917C3.81019 14.2269 4.33333 14.4444 4.94444 14.4444C5.31482 14.4444 5.65741 14.3657 5.97222 14.2083C6.28704 14.0509 6.5463 13.8241 6.75 13.5278C6.93519 13.2685 7.17593 13.1157 7.47222 13.0694C7.76852 13.0231 8.0463 13.0926 8.30556 13.2778C8.56481 13.463 8.71759 13.7037 8.76389 14C8.81019 14.2963 8.74074 14.5741 8.55556 14.8333C8.2963 15.1852 8 15.4907 7.66667 15.75C7.33333 16.0093 6.97222 16.213 6.58333 16.3611C6.60185 16.7315 6.75 17.0602 7.02778 17.3472C7.30556 17.6343 7.62963 17.7778 8 17.7778C8.38889 17.7778 8.71759 17.6435 8.98611 17.375C9.25463 17.1065 9.38889 16.7778 9.38889 16.3889Z" fill="#2DCCA7"/>
</svg>
