<svg width="151" height="150" viewBox="0 0 151 150" fill="none" xmlns="http://www.w3.org/2000/svg">
<rect x="0.5" width="150" height="150" rx="75" fill="#EAE2F8"/>
<path d="M80.5837 97.9167H39.3337C36.8128 97.9167 34.6548 97.0191 32.8597 95.224C31.0646 93.4288 30.167 91.2708 30.167 88.75V33.75H39.3337V88.75H80.5837V97.9167ZM105.334 116.25L89.7503 84.1667H59.9587C56.1392 84.1667 52.8927 82.8299 50.2191 80.1562C47.5455 77.4826 46.2087 74.2361 46.2087 70.4167V33.75H73.7087V61.25H87.4587C89.2156 61.25 90.8198 61.7274 92.2712 62.6823C93.7225 63.6372 94.8684 64.9167 95.7087 66.5208L111.292 98.375L116.334 96.0833C118.091 95.2431 119.867 95.1094 121.662 95.6823C123.457 96.2552 124.813 97.3819 125.729 99.0625C126.646 100.819 126.78 102.615 126.131 104.448C125.481 106.281 124.278 107.618 122.521 108.458L105.334 116.25Z" fill="#724BB7"/>
</svg>
