<svg width="151" height="150" viewBox="0 0 151 150" fill="none" xmlns="http://www.w3.org/2000/svg">
<rect x="0.5" width="150" height="150" rx="75" fill="#EAE2F8"/>
<path d="M59.7695 122.923V97.9229C54.6029 97.5062 49.5404 96.9229 44.582 96.1729C39.6237 95.4229 34.6862 94.3395 29.7695 92.9229L32.2695 82.9229C39.1862 84.8395 46.1862 86.152 53.2695 86.8604C60.3529 87.5687 67.5195 87.9229 74.7695 87.9229C81.9362 87.9229 89.0612 87.5687 96.1445 86.8604C103.228 86.152 110.27 84.8395 117.27 82.9229L119.77 92.9229C114.77 94.3395 109.79 95.4229 104.832 96.1729C99.8737 96.9229 94.8529 97.5062 89.7695 97.9229V122.923H59.7695ZM74.7695 82.9229C71.9362 82.9229 69.5612 81.9645 67.6445 80.0479C65.7279 78.1312 64.7695 75.7562 64.7695 72.9229C64.7695 70.1729 65.7279 67.8187 67.6445 65.8604C69.5612 63.902 71.9362 62.9229 74.7695 62.9229C77.5195 62.9229 79.8737 63.902 81.832 65.8604C83.7904 67.8187 84.7695 70.1729 84.7695 72.9229C84.7695 75.7562 83.7904 78.1312 81.832 80.0479C79.8737 81.9645 77.5195 82.9229 74.7695 82.9229ZM37.2695 67.9229C35.1029 67.9229 33.3112 67.2145 31.8945 65.7979C30.4779 64.3812 29.7695 62.5895 29.7695 60.4229C29.7695 58.3395 30.4779 56.5687 31.8945 55.1104C33.3112 53.652 35.1029 52.9229 37.2695 52.9229C39.3529 52.9229 41.1237 53.652 42.582 55.1104C44.0404 56.5687 44.7695 58.3395 44.7695 60.4229C44.7695 62.5895 44.0404 64.3812 42.582 65.7979C41.1237 67.2145 39.3529 67.9229 37.2695 67.9229ZM112.27 67.9229C110.103 67.9229 108.311 67.2145 106.895 65.7979C105.478 64.3812 104.77 62.5895 104.77 60.4229C104.77 58.3395 105.478 56.5687 106.895 55.1104C108.311 53.652 110.103 52.9229 112.27 52.9229C114.353 52.9229 116.124 53.652 117.582 55.1104C119.04 56.5687 119.77 58.3395 119.77 60.4229C119.77 62.5895 119.04 64.3812 117.582 65.7979C116.124 67.2145 114.353 67.9229 112.27 67.9229ZM51.0195 49.1729C48.8529 49.1729 47.0612 48.4645 45.6445 47.0479C44.2279 45.6312 43.5195 43.8395 43.5195 41.6729C43.5195 39.5895 44.2279 37.8187 45.6445 36.3604C47.0612 34.902 48.8529 34.1729 51.0195 34.1729C53.1029 34.1729 54.8737 34.902 56.332 36.3604C57.7904 37.8187 58.5195 39.5895 58.5195 41.6729C58.5195 43.8395 57.7904 45.6312 56.332 47.0479C54.8737 48.4645 53.1029 49.1729 51.0195 49.1729ZM98.5195 49.1729C96.3529 49.1729 94.5612 48.4645 93.1445 47.0479C91.7279 45.6312 91.0195 43.8395 91.0195 41.6729C91.0195 39.5895 91.7279 37.8187 93.1445 36.3604C94.5612 34.902 96.3529 34.1729 98.5195 34.1729C100.603 34.1729 102.374 34.902 103.832 36.3604C105.29 37.8187 106.02 39.5895 106.02 41.6729C106.02 43.8395 105.29 45.6312 103.832 47.0479C102.374 48.4645 100.603 49.1729 98.5195 49.1729ZM74.7695 42.9229C72.6029 42.9229 70.8112 42.2145 69.3945 40.7979C67.9779 39.3812 67.2695 37.5895 67.2695 35.4229C67.2695 33.3395 67.9779 31.5687 69.3945 30.1104C70.8112 28.652 72.6029 27.9229 74.7695 27.9229C76.8529 27.9229 78.6237 28.652 80.082 30.1104C81.5404 31.5687 82.2695 33.3395 82.2695 35.4229C82.2695 37.5895 81.5404 39.3812 80.082 40.7979C78.6237 42.2145 76.8529 42.9229 74.7695 42.9229Z" fill="#724BB7"/>
</svg>
