<svg width="151" height="150" viewBox="0 0 151 150" fill="none" xmlns="http://www.w3.org/2000/svg">
<rect x="0.5" width="150" height="150" rx="75" fill="#EAE2F8"/>
<path d="M75 125L72.5 75L55 70H20V60H50L85 35L91.5 42.625L70.75 57.5H85L124 35L130 42L87.5 75L85 125H75ZM45 55C42.25 55 39.8958 54.0208 37.9375 52.0625C35.9792 50.1042 35 47.75 35 45C35 42.25 35.9792 39.8958 37.9375 37.9375C39.8958 35.9792 42.25 35 45 35C47.75 35 50.1042 35.9792 52.0625 37.9375C54.0208 39.8958 55 42.25 55 45C55 47.75 54.0208 50.1042 52.0625 52.0625C50.1042 54.0208 47.75 55 45 55Z" fill="#724BB7"/>
</svg>
