<svg width="40" height="40" viewBox="0 0 40 40" fill="none" xmlns="http://www.w3.org/2000/svg">
<path d="M0 4C0 1.79086 1.79086 0 4 0H36C38.2091 0 40 1.79086 40 4V36C40 38.2091 38.2091 40 36 40H4C1.79086 40 0 38.2091 0 36V4Z" fill="#DCEEFB"/>
<path d="M25.5 25.4872C24.015 25.4872 23.08 25.9492 22.255 26.3672C21.54 26.7302 20.957 27.0272 20 27.0272C19.01 27.0272 18.46 26.7522 17.745 26.3672C16.92 25.9492 16.018 25.4872 14.5 25.4872C12.982 25.4872 12.08 25.9492 11.255 26.3672C10.54 26.7302 9.968 27.0272 9 27.0272V29.1722C10.485 29.1722 11.42 28.7102 12.245 28.2922C12.96 27.9292 13.532 27.6322 14.5 27.6322C15.468 27.6322 16.04 27.9072 16.755 28.2922C17.58 28.7102 18.482 29.1722 20 29.1722C21.518 29.1722 22.42 28.7102 23.245 28.2922C23.96 27.9292 24.543 27.6322 25.5 27.6322C26.49 27.6322 27.04 27.9072 27.755 28.2922C28.58 28.7102 29.493 29.1722 31 29.1722V27.0272C30.01 27.0272 29.46 26.7522 28.745 26.3672C27.92 25.9492 26.985 25.4872 25.5 25.4872ZM25.5 20.5922C24.015 20.5922 23.08 21.0652 22.255 21.4722C21.54 21.8242 20.957 22.1322 20 22.1322C19.01 22.1322 18.46 21.8572 17.745 21.4722C16.92 21.0542 16.018 20.5922 14.5 20.5922C12.982 20.5922 12.08 21.0652 11.255 21.4722C10.54 21.8242 9.968 22.1322 9 22.1322V24.2772C10.485 24.2772 11.42 23.8042 12.245 23.3972C12.96 23.0122 13.51 22.7372 14.5 22.7372C15.49 22.7372 16.04 23.0122 16.755 23.3972C17.58 23.8152 18.482 24.2772 20 24.2772C21.518 24.2772 22.42 23.8042 23.245 23.3972C23.96 23.0122 24.51 22.7372 25.5 22.7372C26.49 22.7372 27.04 23.0122 27.755 23.3972C28.58 23.8152 29.493 24.2772 31 24.2772V22.1322C30.01 22.1322 29.46 21.8572 28.745 21.4722C27.92 21.0542 26.985 20.5922 25.5 20.5922ZM28.745 11.7042C27.92 11.2862 27.007 10.8242 25.5 10.8242C23.993 10.8242 23.08 11.2862 22.255 11.7042C21.54 12.0562 20.957 12.3642 20 12.3642C19.01 12.3642 18.46 12.0892 17.745 11.7042C16.92 11.2972 16.018 10.8242 14.5 10.8242C12.982 10.8242 12.08 11.2862 11.255 11.7042C10.54 12.0672 9.968 12.3642 9 12.3642V14.4872C10.485 14.4872 11.42 14.0142 12.245 13.6072C12.96 13.2442 13.532 12.9472 14.5 12.9472C15.468 12.9472 16.04 13.2222 16.755 13.6072C17.58 14.0252 18.482 14.4872 20 14.4872C21.518 14.4872 22.42 14.0142 23.245 13.6072C23.96 13.2552 24.543 12.9472 25.5 12.9472C26.49 12.9472 27.04 13.2222 27.755 13.6072C28.58 14.0252 29.493 14.4872 31 14.4872V12.3422C30.01 12.3422 29.46 12.0672 28.745 11.7042ZM25.5 15.6972C24.015 15.6972 23.08 16.1702 22.255 16.5772C21.54 16.9622 20.99 17.2372 20 17.2372C19.01 17.2372 18.46 16.9622 17.745 16.5772C16.92 16.1592 16.018 15.6972 14.5 15.6972C12.982 15.6972 12.08 16.1702 11.255 16.5772C10.54 16.9622 9.99 17.2372 9 17.2372V19.3822C10.485 19.3822 11.42 18.9092 12.245 18.5022C12.96 18.1502 13.543 17.8422 14.5 17.8422C15.457 17.8422 16.04 18.1172 16.755 18.5022C17.58 18.9202 18.482 19.3822 20 19.3822C21.518 19.3822 22.42 18.9092 23.245 18.5022C23.96 18.1502 24.543 17.8422 25.5 17.8422C26.49 17.8422 27.04 18.1172 27.755 18.5022C28.58 18.9202 29.493 19.3822 31 19.3822V17.2372C30.01 17.2372 29.46 16.9622 28.745 16.5772C27.92 16.1592 26.985 15.6972 25.5 15.6972Z" fill="#2680C2"/>
</svg>
