<svg width="40" height="40" viewBox="0 0 40 40" fill="none" xmlns="http://www.w3.org/2000/svg">
<path d="M0 4C0 1.79086 1.79086 0 4 0H36C38.2091 0 40 1.79086 40 4V36C40 38.2091 38.2091 40 36 40H4C1.79086 40 0 38.2091 0 36V4Z" fill="#F0FCF9"/>
<path d="M12.1929 32V26.84C11.0529 25.8 10.1679 24.585 9.5379 23.195C8.9079 21.805 8.5929 20.34 8.5929 18.8C8.5929 15.8 9.6429 13.25 11.7429 11.15C13.8429 9.05 16.3929 8 19.3929 8C21.8929 8 24.1079 8.735 26.0379 10.205C27.9679 11.675 29.2229 13.59 29.8029 15.95L31.3629 22.1C31.4629 22.48 31.3929 22.825 31.1529 23.135C30.9129 23.445 30.5929 23.6 30.1929 23.6H27.7929V27.2C27.7929 27.86 27.5579 28.425 27.0879 28.895C26.6179 29.365 26.0529 29.6 25.3929 29.6H22.9929V32H20.5929V27.2H25.3929V21.2H28.6329L27.4929 16.55C27.0329 14.73 26.0529 13.25 24.5529 12.11C23.0529 10.97 21.3329 10.4 19.3929 10.4C17.0729 10.4 15.0929 11.21 13.4529 12.83C11.8129 14.45 10.9929 16.42 10.9929 18.74C10.9929 19.94 11.2379 21.08 11.7279 22.16C12.2179 23.24 12.9129 24.2 13.8129 25.04L14.5929 25.76V32H12.1929ZM18.1929 23.6H20.5929L20.7729 22.1C20.9329 22.04 21.0779 21.97 21.2079 21.89C21.3379 21.81 21.4529 21.72 21.5529 21.62L22.9329 22.22L24.1329 20.18L22.9329 19.28C22.9729 19.12 22.9929 18.96 22.9929 18.8C22.9929 18.64 22.9729 18.48 22.9329 18.32L24.1329 17.42L22.9329 15.38L21.5529 15.98C21.4529 15.88 21.3379 15.79 21.2079 15.71C21.0779 15.63 20.9329 15.56 20.7729 15.5L20.5929 14H18.1929L18.0129 15.5C17.8529 15.56 17.7079 15.63 17.5779 15.71C17.4479 15.79 17.3329 15.88 17.2329 15.98L15.8529 15.38L14.6529 17.42L15.8529 18.32C15.8129 18.48 15.7929 18.64 15.7929 18.8C15.7929 18.96 15.8129 19.12 15.8529 19.28L14.6529 20.18L15.8529 22.22L17.2329 21.62C17.3329 21.72 17.4479 21.81 17.5779 21.89C17.7079 21.97 17.8529 22.04 18.0129 22.1L18.1929 23.6ZM19.3929 20.6C18.8929 20.6 18.4679 20.425 18.1179 20.075C17.7679 19.725 17.5929 19.3 17.5929 18.8C17.5929 18.3 17.7679 17.875 18.1179 17.525C18.4679 17.175 18.8929 17 19.3929 17C19.8929 17 20.3179 17.175 20.6679 17.525C21.0179 17.875 21.1929 18.3 21.1929 18.8C21.1929 19.3 21.0179 19.725 20.6679 20.075C20.3179 20.425 19.8929 20.6 19.3929 20.6Z" fill="#2DCCA7"/>
</svg>
