<svg width="40" height="40" viewBox="0 0 40 40" fill="none" xmlns="http://www.w3.org/2000/svg">
<path d="M0 4C0 1.79086 1.79086 0 4 0H36C38.2091 0 40 1.79086 40 4V36C40 38.2091 38.2091 40 36 40H4C1.79086 40 0 38.2091 0 36V4Z" fill="#FFE8D9"/>
<path d="M24.188 17.156C23.972 13.808 22.616 10.544 20.072 8C17.504 10.568 16.088 13.832 15.812 17.156C17.348 17.972 18.764 19.028 20 20.312C21.236 19.04 22.652 17.984 24.188 17.156ZM20.06 11.828C20.816 13.064 21.344 14.444 21.62 15.884C21.056 16.244 20.528 16.64 20.012 17.06C19.508 16.652 18.968 16.256 18.416 15.896C18.716 14.456 19.268 13.076 20.06 11.828ZM20 24.14C19.016 22.64 17.768 21.332 16.328 20.3C16.172 20.192 16.004 20.108 15.848 19.988C16.004 20.096 16.172 20.192 16.316 20.288C13.976 18.596 11.108 17.6 8 17.6C8 23.984 12.032 29.384 17.636 31.388C18.392 31.664 19.184 31.868 20 32C20.816 31.856 21.596 31.652 22.364 31.388C27.968 29.384 32 23.984 32 17.6C26.984 17.6 22.58 20.204 20 24.14ZM21.584 29.12C21.056 29.3 20.528 29.444 19.988 29.564C19.46 29.456 18.944 29.312 18.452 29.132C14.504 27.716 11.612 24.344 10.712 20.312C12.032 20.624 13.292 21.164 14.456 21.908L14.432 21.92C14.588 22.028 14.744 22.136 14.9 22.22L14.984 22.268C16.172 23.132 17.192 24.2 17.996 25.448L20 28.52L22.004 25.46C22.832 24.2 23.864 23.12 25.04 22.268L25.124 22.208C25.232 22.148 25.34 22.076 25.448 22.004L25.436 21.98C26.612 21.2 27.92 20.624 29.288 20.3C28.388 24.344 25.508 27.716 21.584 29.12ZM16.388 20.336C16.364 20.324 16.34 20.3 16.328 20.288C16.328 20.288 16.34 20.288 16.34 20.3C16.352 20.312 16.364 20.324 16.388 20.336Z" fill="#F9703E"/>
</svg>
