<svg width="40" height="40" viewBox="0 0 40 40" fill="none" xmlns="http://www.w3.org/2000/svg">
<path d="M0 4C0 1.79086 1.79086 0 4 0H36C38.2091 0 40 1.79086 40 4V36C40 38.2091 38.2091 40 36 40H4C1.79086 40 0 38.2091 0 36V4Z" fill="#EAE2F8"/>
<path d="M13.7474 15.5158L10.1474 19.1158C9.91579 19.3474 9.62632 19.4684 9.27895 19.4789C8.93158 19.4895 8.63158 19.3684 8.37895 19.1158C8.14737 18.8842 8.02632 18.5947 8.01579 18.2474C8.00526 17.9 8.11579 17.6 8.34737 17.3474L9.26316 16.4L8.37895 15.5158C8.12632 15.2632 8 14.9684 8 14.6316C8 14.2947 8.12632 14 8.37895 13.7474L10.1474 11.9789L9.23158 11.0316C9 10.8 8.88421 10.5105 8.88421 10.1632C8.88421 9.81579 9.01053 9.51579 9.26316 9.26316C9.49474 9.03158 9.78421 8.91053 10.1316 8.9C10.4789 8.88947 10.7789 9 11.0316 9.23158L11.9789 10.1474L13.7474 8.37895C14 8.12632 14.2947 8 14.6316 8C14.9684 8 15.2632 8.12632 15.5158 8.37895L16.4 9.26316L17.3474 8.34737C17.5789 8.11579 17.8684 8 18.2158 8C18.5632 8 18.8632 8.12632 19.1158 8.37895C19.3474 8.61053 19.4632 8.90526 19.4632 9.26316C19.4632 9.62105 19.3474 9.91579 19.1158 10.1474L15.5158 13.7474L26.2526 24.4842L29.8526 20.8842C30.0842 20.6526 30.3737 20.5316 30.7211 20.5211C31.0684 20.5105 31.3684 20.6316 31.6211 20.8842C31.8526 21.1158 31.9737 21.4053 31.9842 21.7526C31.9947 22.1 31.8842 22.4 31.6526 22.6526L30.7368 23.6L31.6211 24.4842C31.8737 24.7368 32 25.0316 32 25.3684C32 25.7053 31.8737 26 31.6211 26.2526L29.8526 28.0211L30.7684 28.9684C31 29.2 31.1158 29.4895 31.1158 29.8368C31.1158 30.1842 30.9895 30.4842 30.7368 30.7368C30.5053 30.9684 30.2158 31.0895 29.8684 31.1C29.5211 31.1105 29.2211 31 28.9684 30.7684L28.0211 29.8526L26.2526 31.6211C26 31.8737 25.7053 32 25.3684 32C25.0316 32 24.7368 31.8737 24.4842 31.6211L23.6 30.7368L22.6526 31.6526C22.4211 31.8842 22.1316 32 21.7842 32C21.4368 32 21.1368 31.8737 20.8842 31.6211C20.6526 31.3895 20.5368 31.0947 20.5368 30.7368C20.5368 30.3789 20.6526 30.0842 20.8842 29.8526L24.4842 26.2526L13.7474 15.5158Z" fill="#653CAD"/>
</svg>
