<svg width="40" height="40" viewBox="0 0 40 40" fill="none" xmlns="http://www.w3.org/2000/svg">
<path d="M0 4C0 1.79086 1.79086 0 4 0H36C38.2091 0 40 1.79086 40 4V36C40 38.2091 38.2091 40 36 40H4C1.79086 40 0 38.2091 0 36V4Z" fill="#EAE2F8"/>
<path d="M21.1162 12.4651C22.3441 12.4651 23.3488 11.4605 23.3488 10.2326C23.3488 9.00465 22.3441 8 21.1162 8C19.8883 8 18.8837 9.00465 18.8837 10.2326C18.8837 11.4605 19.8883 12.4651 21.1162 12.4651ZM16.986 16.2605L13.8604 32H16.2046L18.2139 23.0698L20.5581 25.3023V32H22.7907V23.6279L20.4465 21.3953L21.1162 18.0465C22.5674 19.7209 24.8 20.8372 27.2558 20.8372V18.6047C25.1348 18.6047 23.3488 17.4884 22.4558 15.9256L21.3395 14.1395C20.7144 13.146 19.4641 12.7442 18.3814 13.2019L12.7441 15.5907V20.8372H14.9767V17.0419L16.986 16.2605Z" fill="#724BB7"/>
</svg>
