<svg width="24" height="24" viewBox="0 0 24 24" fill="none" xmlns="http://www.w3.org/2000/svg">
<path d="M4.1 24V18.84C2.96 17.8 2.075 16.585 1.445 15.195C0.815 13.805 0.5 12.34 0.5 10.8C0.5 7.8 1.55 5.25 3.65 3.15C5.75 1.05 8.3 0 11.3 0C13.8 0 16.015 0.735 17.945 2.205C19.875 3.675 21.13 5.59 21.71 7.95L23.27 14.1C23.37 14.48 23.3 14.825 23.06 15.135C22.82 15.445 22.5 15.6 22.1 15.6H19.7V19.2C19.7 19.86 19.465 20.425 18.995 20.895C18.525 21.365 17.96 21.6 17.3 21.6H14.9V24H12.5V19.2H17.3V13.2H20.54L19.4 8.55C18.94 6.73 17.96 5.25 16.46 4.11C14.96 2.97 13.24 2.4 11.3 2.4C8.98 2.4 7 3.21 5.36 4.83C3.72 6.45 2.9 8.42 2.9 10.74C2.9 11.94 3.145 13.08 3.635 14.16C4.125 15.24 4.82 16.2 5.72 17.04L6.5 17.76V24H4.1ZM10.1 15.6H12.5L12.68 14.1C12.84 14.04 12.985 13.97 13.115 13.89C13.245 13.81 13.36 13.72 13.46 13.62L14.84 14.22L16.04 12.18L14.84 11.28C14.88 11.12 14.9 10.96 14.9 10.8C14.9 10.64 14.88 10.48 14.84 10.32L16.04 9.42L14.84 7.38L13.46 7.98C13.36 7.88 13.245 7.79 13.115 7.71C12.985 7.63 12.84 7.56 12.68 7.5L12.5 6H10.1L9.92 7.5C9.76 7.56 9.615 7.63 9.485 7.71C9.355 7.79 9.24 7.88 9.14 7.98L7.76 7.38L6.56 9.42L7.76 10.32C7.72 10.48 7.7 10.64 7.7 10.8C7.7 10.96 7.72 11.12 7.76 11.28L6.56 12.18L7.76 14.22L9.14 13.62C9.24 13.72 9.355 13.81 9.485 13.89C9.615 13.97 9.76 14.04 9.92 14.1L10.1 15.6ZM11.3 12.6C10.8 12.6 10.375 12.425 10.025 12.075C9.675 11.725 9.5 11.3 9.5 10.8C9.5 10.3 9.675 9.875 10.025 9.525C10.375 9.175 10.8 9 11.3 9C11.8 9 12.225 9.175 12.575 9.525C12.925 9.875 13.1 10.3 13.1 10.8C13.1 11.3 12.925 11.725 12.575 12.075C12.225 12.425 11.8 12.6 11.3 12.6Z" fill="#2DCCA7"/>
</svg>
