<svg width="27" height="32" viewBox="0 0 27 32" fill="none" xmlns="http://www.w3.org/2000/svg">
<g opacity="0.3">
<path opacity="0.3" d="M18.6219 6.56639C17.893 6.56569 17.1941 6.2758 16.6787 5.76037C16.1633 5.24495 15.8734 4.54608 15.8727 3.81716V2.47795e-07H3.58919C3.11791 -0.000174882 2.65121 0.0924823 2.21576 0.27271C1.78031 0.452938 1.38463 0.7172 1.05132 1.05038C0.71802 1.38356 0.453621 1.77914 0.273231 2.21452C0.0928411 2.64991 -3.254e-08 3.11656 0 3.58784V25.2163C-3.254e-08 25.6875 0.0928411 26.1542 0.273231 26.5896C0.453621 27.025 0.71802 27.4206 1.05132 27.7538C1.38463 28.0869 1.78031 28.3512 2.21576 28.5314C2.65121 28.7116 3.11791 28.8043 3.58919 28.8041H18.3352C19.2868 28.8041 20.1994 28.4261 20.8722 27.7533C21.5451 27.0804 21.9231 26.1678 21.9231 25.2163V6.56639H18.6219Z" fill="#1F2933" fill-opacity="0.45"/>
</g>
<path d="M21.9235 6.56639H18.6223C17.8934 6.56569 17.1945 6.2758 16.6791 5.76037C16.1636 5.24495 15.8738 4.54608 15.873 3.81716V0L21.9235 6.56639Z" fill="#1F2933" fill-opacity="0.45"/>
<path d="M17.4128 11.1637H3.64806C3.51581 11.1637 3.38899 11.1111 3.29547 11.0176C3.20196 10.9241 3.14942 10.7973 3.14942 10.665C3.14924 10.5994 3.16201 10.5344 3.187 10.4738C3.21198 10.4131 3.24868 10.358 3.295 10.3115C3.34132 10.2651 3.39634 10.2283 3.45692 10.2031C3.51751 10.178 3.58247 10.165 3.64806 10.165H17.4128C17.5454 10.165 17.6726 10.2177 17.7664 10.3115C17.8601 10.4052 17.9128 10.5324 17.9128 10.665C17.9124 10.7974 17.8596 10.9242 17.7659 11.0177C17.6722 11.1112 17.5452 11.1637 17.4128 11.1637Z" fill="#1F2933" fill-opacity="0.45"/>
<path d="M17.4128 14.1461H3.64806C3.51581 14.1461 3.38899 14.0935 3.29547 14C3.20196 13.9065 3.14942 13.7797 3.14942 13.6474C3.14924 13.5818 3.16201 13.5169 3.187 13.4562C3.21198 13.3956 3.24868 13.3404 3.295 13.294C3.34132 13.2475 3.39634 13.2107 3.45692 13.1855C3.51751 13.1604 3.58247 13.1475 3.64806 13.1475H17.4128C17.5454 13.1475 17.6726 13.2001 17.7664 13.2939C17.8601 13.3876 17.9128 13.5148 17.9128 13.6474C17.9124 13.7798 17.8596 13.9066 17.7659 14.0001C17.6722 14.0936 17.5452 14.1461 17.4128 14.1461Z" fill="#1F2933" fill-opacity="0.45"/>
<path d="M17.4128 17.1285H3.64806C3.58247 17.1285 3.51751 17.1156 3.45692 17.0904C3.39634 17.0653 3.34132 17.0284 3.295 16.982C3.24868 16.9356 3.21198 16.8804 3.187 16.8198C3.16201 16.7591 3.14924 16.6941 3.14942 16.6285C3.14942 16.4963 3.20196 16.3695 3.29547 16.2759C3.38899 16.1824 3.51581 16.1299 3.64806 16.1299H17.4128C17.5452 16.1299 17.6722 16.1824 17.7659 16.2758C17.8596 16.3693 17.9124 16.4962 17.9128 16.6285C17.9128 16.7611 17.8601 16.8883 17.7664 16.9821C17.6726 17.0758 17.5454 17.1285 17.4128 17.1285Z" fill="#1F2933" fill-opacity="0.45"/>
<path d="M11.981 20.1112H3.64806C3.58247 20.1112 3.51751 20.0982 3.45692 20.0731C3.39634 20.0479 3.34132 20.0111 3.295 19.9646C3.24868 19.9182 3.21198 19.8631 3.187 19.8024C3.16201 19.7418 3.14924 19.6768 3.14942 19.6112C3.14942 19.4789 3.20196 19.3521 3.29547 19.2586C3.38899 19.1651 3.51581 19.1125 3.64806 19.1125H11.981C12.1133 19.1125 12.2401 19.1651 12.3336 19.2586C12.4272 19.3521 12.4797 19.4789 12.4797 19.6112C12.4799 19.6768 12.4671 19.7418 12.4421 19.8024C12.4171 19.8631 12.3804 19.9182 12.3341 19.9646C12.2878 20.0111 12.2328 20.0479 12.1722 20.0731C12.1116 20.0982 12.0466 20.1112 11.981 20.1112Z" fill="#1F2933" fill-opacity="0.45"/>
<path d="M24.5254 22.7471H7.85413C6.67156 22.7471 5.71289 23.7057 5.71289 24.8883V29.8588C5.71289 31.0414 6.67156 32 7.85413 32H24.5254C25.708 32 26.6667 31.0414 26.6667 29.8588V24.8883C26.6667 23.7057 25.708 22.7471 24.5254 22.7471Z" fill="#1F2933" fill-opacity="0.45"/>
<path d="M8.15727 28.4495V29.4188H7.15332V28.4495H8.15727Z" fill="#F9F9F8"/>
<path d="M12.0157 28.4522C11.8484 28.755 11.5963 29.0025 11.2904 29.1641C10.9458 29.3404 10.5627 29.4279 10.1757 29.4188H8.66113V25.4096H10.1757C10.5629 25.4002 10.9466 25.4858 11.293 25.6589C11.598 25.8173 11.8494 26.0622 12.0157 26.3629C12.188 26.683 12.2748 27.0421 12.2677 27.4055C12.2745 27.7702 12.1878 28.1306 12.0157 28.4522ZM10.973 28.2508C11.0814 28.1396 11.1654 28.0069 11.2196 27.8614C11.2738 27.7158 11.297 27.5606 11.2877 27.4055C11.297 27.2507 11.2738 27.0956 11.2197 26.9503C11.1655 26.8049 11.0814 26.6725 10.973 26.5616C10.7301 26.3486 10.4128 26.2403 10.0904 26.2603H9.63176V28.5508H10.0904C10.4126 28.5706 10.7296 28.4628 10.973 28.2508Z" fill="#F9F9F8"/>
<path d="M15.753 25.611C16.058 25.7842 16.3101 26.0373 16.4823 26.343C16.6627 26.6658 16.7547 27.0305 16.7489 27.4002C16.7557 27.771 16.6636 28.1368 16.4823 28.4602C16.3105 28.7673 16.0578 29.0214 15.7516 29.1948C15.44 29.3728 15.0866 29.4648 14.7277 29.4615C14.3688 29.4648 14.0154 29.3728 13.7037 29.1948C13.3976 29.0214 13.1449 28.7673 12.9731 28.4602C12.7917 28.1368 12.6997 27.771 12.7064 27.4002C12.6995 27.0303 12.7916 26.6653 12.9731 26.343C13.1457 26.0372 13.3983 25.7842 13.7037 25.611C14.0154 25.433 14.3688 25.341 14.7277 25.3443C15.087 25.3412 15.4407 25.4332 15.753 25.611ZM13.9664 26.5576C13.7697 26.7929 13.6696 27.094 13.6864 27.4002C13.6696 27.7052 13.7697 28.0051 13.9664 28.2389C14.0622 28.343 14.1796 28.4249 14.3105 28.4788C14.4413 28.5327 14.5823 28.5573 14.7237 28.5508C14.8646 28.5567 15.005 28.5318 15.1354 28.478C15.2657 28.4241 15.3827 28.3425 15.4783 28.2389C15.6759 28.0055 15.777 27.7056 15.761 27.4002C15.777 27.0953 15.6769 26.7957 15.481 26.5616C15.3852 26.4574 15.2678 26.3755 15.1369 26.3216C15.0061 26.2677 14.865 26.2431 14.7237 26.2496C14.5827 26.2431 14.442 26.2673 14.3112 26.3205C14.1805 26.3737 14.0628 26.4545 13.9664 26.5576Z" fill="#F9F9F8"/>
<path d="M20.3908 25.7723C20.729 26.0474 20.959 26.4332 21.0401 26.8615H20.0135C19.9443 26.684 19.823 26.5316 19.6655 26.4242C19.4996 26.3162 19.3048 26.2609 19.1069 26.2656C18.9762 26.2614 18.8462 26.2873 18.7272 26.3414C18.6081 26.3955 18.5031 26.4763 18.4203 26.5776C18.2347 26.8151 18.1401 27.1111 18.1536 27.4122C18.14 27.7121 18.2347 28.0069 18.4203 28.2428C18.5038 28.343 18.609 28.4228 18.728 28.4762C18.847 28.5295 18.9766 28.5551 19.1069 28.5508C19.3049 28.5561 19.4998 28.5007 19.6655 28.3921C19.8221 28.2867 19.9433 28.1367 20.0135 27.9615H21.0401C20.9576 28.3885 20.7278 28.7731 20.3908 29.0481C20.0282 29.325 19.5801 29.4665 19.1242 29.4481C18.765 29.4557 18.4104 29.3663 18.0976 29.1894C17.8049 29.0193 17.5674 28.7684 17.4136 28.4668C17.248 28.1361 17.1651 27.77 17.1723 27.4002C17.1652 27.0303 17.248 26.6643 17.4136 26.3336C17.5674 26.0319 17.8049 25.7811 18.0976 25.6109C18.4104 25.4341 18.765 25.3447 19.1242 25.3523C19.5825 25.3401 20.0306 25.4887 20.3908 25.7723Z" fill="#F9F9F8"/>
<path d="M24.0181 29.4188L23.1728 28.1709L22.4475 29.4188H21.3355L22.6182 27.3549L21.2969 25.4097H22.4475L23.2701 26.6176L23.9781 25.4097H25.0847L23.8194 27.4282L25.1687 29.4188H24.0181Z" fill="#F9F9F8"/>
</svg>
