<svg width="25" height="24" viewBox="0 0 25 24" fill="none" xmlns="http://www.w3.org/2000/svg">
<path d="M18 18H22.75V20H16L18 18ZM5.5 20L3.375 17.875C2.99166 17.4917 2.79583 17.0167 2.7875 16.45C2.77916 15.8833 2.96666 15.4 3.35 15L14.35 3.6C14.7333 3.2 15.2042 3 15.7625 3C16.3208 3 16.7917 3.19167 17.175 3.575L22.15 8.55C22.5333 8.93333 22.725 9.40833 22.725 9.975C22.725 10.5417 22.5333 11.0167 22.15 11.4L13.75 20H5.5ZM12.9 18L20.75 9.95L15.8 5L4.75 16.4L6.35 18H12.9Z" fill="#1F2933" fill-opacity="0.88"/>
</svg>
