<svg width="27" height="32" viewBox="0 0 27 32" fill="none" xmlns="http://www.w3.org/2000/svg">
<g opacity="0.3">
<path opacity="0.3" d="M18.6221 6.56646C17.8931 6.56575 17.1943 6.27586 16.6788 5.76043C16.1634 5.245 15.8735 4.54612 15.8728 3.8172V0H3.58788C2.63632 0 1.72373 0.378019 1.05087 1.05088C0.378011 1.72374 0 2.63631 0 3.58787V25.2165C0.00141307 26.1672 0.380044 27.0784 1.05275 27.7501C1.72546 28.4218 2.63724 28.7991 3.58788 28.7991H18.3354C19.2861 28.7991 20.1978 28.4218 20.8706 27.7501C21.5433 27.0784 21.9219 26.1672 21.9233 25.2165V6.56646H18.6221Z" fill="#1F2933" fill-opacity="0.45"/>
</g>
<path d="M21.9235 6.56646H18.6223C17.8934 6.56575 17.1945 6.27586 16.6791 5.76043C16.1636 5.245 15.8738 4.54612 15.873 3.8172V0L21.9235 6.56646Z" fill="#1F2933" fill-opacity="0.45"/>
<path d="M17.4123 20.1114H3.64744C3.51484 20.1114 3.38767 20.0587 3.2939 19.965C3.20013 19.8712 3.14746 19.744 3.14746 19.6114C3.14781 19.4791 3.20064 19.3522 3.29437 19.2588C3.3881 19.1653 3.51507 19.1128 3.64744 19.1128H17.4123C17.5446 19.1128 17.6714 19.1653 17.7649 19.2588C17.8585 19.3523 17.911 19.4792 17.911 19.6114C17.9112 19.677 17.8984 19.742 17.8734 19.8027C17.8484 19.8633 17.8117 19.9184 17.7654 19.9649C17.7191 20.0113 17.6641 20.0482 17.6035 20.0733C17.5429 20.0985 17.4779 20.1114 17.4123 20.1114Z" fill="#1F2933" fill-opacity="0.45"/>
<path d="M17.4123 14.4801H3.64744C3.51507 14.4801 3.3881 14.4276 3.29437 14.3341C3.20064 14.2406 3.14781 14.1138 3.14746 13.9814C3.14746 13.8488 3.20013 13.7216 3.2939 13.6279C3.38767 13.5341 3.51484 13.4814 3.64744 13.4814H17.4123C17.4779 13.4814 17.5429 13.4944 17.6035 13.5195C17.6641 13.5447 17.7191 13.5815 17.7654 13.628C17.8117 13.6744 17.8484 13.7295 17.8734 13.7902C17.8984 13.8508 17.9112 13.9158 17.911 13.9814C17.911 14.1137 17.8585 14.2405 17.7649 14.334C17.6714 14.4275 17.5446 14.4801 17.4123 14.4801Z" fill="#1F2933" fill-opacity="0.45"/>
<path d="M17.4123 17.2958H3.64744C3.51484 17.2958 3.38767 17.2431 3.2939 17.1493C3.20013 17.0555 3.14746 16.9284 3.14746 16.7958C3.14781 16.6634 3.20064 16.5366 3.29437 16.4431C3.3881 16.3496 3.51507 16.2971 3.64744 16.2971H17.4123C17.5446 16.2971 17.6714 16.3497 17.7649 16.4432C17.8585 16.5367 17.911 16.6635 17.911 16.7958C17.9112 16.8614 17.8984 16.9264 17.8734 16.987C17.8484 17.0477 17.8117 17.1028 17.7654 17.1492C17.7191 17.1957 17.6641 17.2325 17.6035 17.2577C17.5429 17.2828 17.4779 17.2958 17.4123 17.2958Z" fill="#1F2933" fill-opacity="0.45"/>
<path d="M11.9832 11.6637H3.64744C3.51507 11.6637 3.3881 11.6112 3.29437 11.5177C3.20064 11.4242 3.14781 11.2974 3.14746 11.165C3.14746 11.0324 3.20013 10.9053 3.2939 10.8115C3.38767 10.7177 3.51484 10.665 3.64744 10.665H11.9832C12.1156 10.6654 12.2424 10.7182 12.3359 10.8119C12.4293 10.9057 12.4818 11.0326 12.4818 11.165C12.4815 11.2972 12.4288 11.4238 12.3354 11.5172C12.242 11.6107 12.1153 11.6633 11.9832 11.6637Z" fill="#1F2933" fill-opacity="0.45"/>
<path d="M11.9832 8.84751H3.64744C3.51507 8.84751 3.3881 8.795 3.29437 8.70152C3.20064 8.60804 3.14781 8.48123 3.14746 8.34886C3.14746 8.21626 3.20013 8.08906 3.2939 7.99529C3.38767 7.90153 3.51484 7.84888 3.64744 7.84888H11.9832C12.1156 7.84923 12.2424 7.90205 12.3359 7.99578C12.4293 8.08951 12.4818 8.21649 12.4818 8.34886C12.4815 8.481 12.4288 8.60762 12.3354 8.70106C12.242 8.7945 12.1153 8.84716 11.9832 8.84751Z" fill="#1F2933" fill-opacity="0.45"/>
<path d="M24.5247 22.7471H7.85318C6.67059 22.7471 5.71191 23.7057 5.71191 24.8883V29.8588C5.71191 31.0414 6.67059 32.0001 7.85318 32.0001H24.5247C25.7072 32.0001 26.6659 31.0414 26.6659 29.8588V24.8883C26.6659 23.7057 25.7072 22.7471 24.5247 22.7471Z" fill="#1F2933" fill-opacity="0.45"/>
<path d="M11.1813 28.4495V29.4188H10.1787V28.4495H11.1813Z" fill="#F9F9F8"/>
<path d="M12.6558 28.0123V29.4188H11.6865V25.4097H13.2571C13.7331 25.4097 14.0971 25.5283 14.3464 25.7643C14.4726 25.8883 14.5711 26.0376 14.6354 26.2023C14.6998 26.3671 14.7285 26.5436 14.7198 26.7203C14.7246 26.9534 14.6671 27.1835 14.5531 27.3869C14.4367 27.5858 14.2642 27.7458 14.0571 27.8469C13.8074 27.965 13.5332 28.0221 13.2571 28.0136L12.6558 28.0123ZM13.7331 26.7203C13.7331 26.3647 13.5385 26.187 13.1491 26.187H12.6558V27.2309H13.1491C13.5385 27.2345 13.7331 27.0643 13.7331 26.7203Z" fill="#F9F9F8"/>
<path d="M18.5505 28.4525C18.3836 28.7556 18.1314 29.0032 17.8252 29.1645C17.4806 29.3408 17.0975 29.4284 16.7106 29.4191H15.1973V25.4099H16.7106C17.0978 25.4002 17.4815 25.4858 17.8279 25.6592C18.1332 25.8171 18.3847 26.0621 18.5505 26.3632C18.724 26.6829 18.8113 27.0422 18.8038 27.4059C18.811 27.7707 18.7238 28.1313 18.5505 28.4525ZM17.5079 28.2511C17.6162 28.1399 17.7002 28.0073 17.7544 27.8617C17.8086 27.7161 17.8318 27.5609 17.8225 27.4059C17.8318 27.251 17.8087 27.0959 17.7545 26.9506C17.7003 26.8052 17.6163 26.6728 17.5079 26.5619C17.2654 26.3491 16.9486 26.2408 16.6266 26.2606H16.1666V28.5511H16.6266C16.9483 28.5707 17.2649 28.4629 17.5079 28.2511Z" fill="#F9F9F8"/>
<path d="M21.9671 25.4097V26.1816H20.3232V27.0603H21.5925V27.7976H20.3232V29.4188H19.3525V25.4097H21.9671Z" fill="#F9F9F8"/>
<path d="M17.1686 7.84888H14.8114C14.4005 7.84888 14.0674 8.18197 14.0674 8.59285V10.9501C14.0674 11.361 14.4005 11.6941 14.8114 11.6941H17.1686C17.5795 11.6941 17.9126 11.361 17.9126 10.9501V8.59285C17.9126 8.18197 17.5795 7.84888 17.1686 7.84888Z" fill="#1F2933" fill-opacity="0.45"/>
</svg>
