<svg width="16" height="16" viewBox="0 0 16 16" fill="none" xmlns="http://www.w3.org/2000/svg">
<path d="M10.792 6.104C10.648 3.872 9.744 1.696 8.048 0C6.336 1.712 5.392 3.888 5.208 6.104C6.232 6.648 7.176 7.352 8 8.208C8.824 7.36 9.768 6.656 10.792 6.104ZM8.04 2.552C8.544 3.376 8.896 4.296 9.08 5.256C8.704 5.496 8.352 5.76 8.008 6.04C7.672 5.768 7.312 5.504 6.944 5.264C7.144 4.304 7.512 3.384 8.04 2.552ZM8 10.76C7.344 9.76 6.512 8.888 5.552 8.2C5.448 8.128 5.336 8.072 5.232 7.992C5.336 8.064 5.448 8.128 5.544 8.192C3.984 7.064 2.072 6.4 5.59969e-10 6.4C9.32348e-10 10.656 2.688 14.256 6.424 15.592C6.928 15.776 7.456 15.912 8 16C8.544 15.904 9.064 15.768 9.576 15.592C13.312 14.256 16 10.656 16 6.4C12.656 6.4 9.72 8.136 8 10.76ZM9.056 14.08C8.704 14.2 8.352 14.296 7.992 14.376C7.64 14.304 7.296 14.208 6.968 14.088C4.336 13.144 2.408 10.896 1.808 8.208C2.688 8.416 3.528 8.776 4.304 9.272L4.288 9.28C4.392 9.352 4.496 9.424 4.6 9.48L4.656 9.512C5.448 10.088 6.128 10.8 6.664 11.632L8 13.68L9.336 11.64C9.888 10.8 10.576 10.08 11.36 9.512L11.416 9.472C11.488 9.432 11.56 9.384 11.632 9.336L11.624 9.32C12.408 8.8 13.28 8.416 14.192 8.2C13.592 10.896 11.672 13.144 9.056 14.08ZM5.592 8.224C5.576 8.216 5.56 8.2 5.552 8.192C5.552 8.192 5.56 8.192 5.56 8.2C5.568 8.208 5.576 8.216 5.592 8.224Z" fill="#F9703E"/>
</svg>
