<svg width="27" height="32" viewBox="0 0 27 32" fill="none" xmlns="http://www.w3.org/2000/svg">
<g opacity="0.3">
<path opacity="0.3" d="M18.6219 6.56639C17.893 6.56569 17.1941 6.2758 16.6787 5.76037C16.1633 5.24495 15.8734 4.54608 15.8727 3.81716V0H3.58787C2.63631 0 1.72372 0.378015 1.05087 1.05087C0.378015 1.72372 0 2.63628 0 3.58784V25.2163C0 26.1678 0.378015 27.0804 1.05087 27.7533C1.72372 28.4261 2.63631 28.8041 3.58787 28.8041H18.3339C19.2855 28.8041 20.1981 28.4261 20.8709 27.7533C21.5438 27.0804 21.9218 26.1678 21.9218 25.2163V6.56639H18.6219Z" fill="#1F2933" fill-opacity="0.45"/>
</g>
<path d="M21.9221 6.56639H18.6223C17.8934 6.56569 17.1945 6.2758 16.6791 5.76037C16.1636 5.24495 15.8738 4.54608 15.873 3.81716V0L21.9221 6.56639Z" fill="#1F2933" fill-opacity="0.45"/>
<path d="M24.5245 22.7471H7.85317C6.67059 22.7471 5.71191 23.7057 5.71191 24.8883V29.8588C5.71191 31.0414 6.67059 32 7.85317 32H24.5245C25.7071 32 26.6657 31.0414 26.6657 29.8588V24.8883C26.6657 23.7057 25.7071 22.7471 24.5245 22.7471Z" fill="#1F2933" fill-opacity="0.45"/>
<path d="M11.6573 28.4495V29.4188H10.6533V28.4495H11.6573Z" fill="#F9F9F8"/>
<path d="M14.5943 29.4188L13.7503 28.1709L13.0237 29.4188H11.9131L13.1943 27.3549L11.873 25.4097H13.0237L13.8463 26.6176L14.5556 25.4097H15.6609L14.3969 27.4282L15.7462 29.4188H14.5943Z" fill="#F9F9F8"/>
<path d="M18.8397 28.8749C18.7247 29.0591 18.5596 29.2066 18.3637 29.3002C18.1253 29.4119 17.8642 29.4662 17.6011 29.4589C17.2042 29.4755 16.813 29.3597 16.4891 29.1296C16.3459 29.0221 16.2287 28.8837 16.1463 28.7246C16.0639 28.5656 16.0184 28.39 16.0132 28.211H17.0451C17.0525 28.346 17.11 28.4734 17.2064 28.5683C17.3024 28.6578 17.4299 28.7057 17.5611 28.7016C17.6145 28.7047 17.6681 28.6973 17.7187 28.6797C17.7692 28.6621 17.8158 28.6346 17.8558 28.5989C17.8913 28.5645 17.9193 28.5229 17.9379 28.477C17.9565 28.4311 17.9653 28.3818 17.9637 28.3323C17.9651 28.2853 17.9569 28.2385 17.9397 28.1948C17.9225 28.151 17.8967 28.1112 17.8637 28.0776C17.7932 28.0062 17.7094 27.9492 17.6171 27.9096C17.5202 27.867 17.3842 27.815 17.2091 27.7536C16.9966 27.6836 16.7891 27.5994 16.5878 27.5017C16.4224 27.4164 16.2805 27.2919 16.1745 27.139C16.0515 26.9539 15.9907 26.7344 16.0011 26.5124C15.9963 26.2924 16.0597 26.0763 16.1825 25.8937C16.3086 25.7153 16.483 25.5766 16.6851 25.4937C16.9182 25.399 17.1683 25.3536 17.4198 25.3604C17.8015 25.3393 18.1787 25.452 18.4864 25.6791C18.6173 25.7856 18.7246 25.9183 18.8013 26.0687C18.878 26.2191 18.9224 26.3838 18.9317 26.5523H17.8824C17.8707 26.4344 17.82 26.3237 17.7384 26.2377C17.6967 26.1978 17.6473 26.1667 17.5932 26.1466C17.5391 26.1264 17.4814 26.1175 17.4238 26.1204C17.3238 26.1158 17.2256 26.1481 17.1478 26.2111C17.1119 26.2451 17.0839 26.2866 17.0659 26.3327C17.048 26.3788 17.0404 26.4283 17.0438 26.4777C17.0417 26.5673 17.0753 26.6541 17.1371 26.719C17.2034 26.7883 17.2833 26.8432 17.3718 26.8804C17.4664 26.9217 17.6024 26.975 17.7797 27.039C17.9961 27.1095 18.2069 27.1959 18.4104 27.2977C18.5766 27.3873 18.7199 27.5142 18.829 27.6683C18.9534 27.8564 19.0151 28.079 19.005 28.3043C19.0032 28.5061 18.946 28.7035 18.8397 28.8749Z" fill="#F9F9F8"/>
<path d="M20.51 28.6762H21.8086V29.4188H19.542V25.4097H20.5126L20.51 28.6762Z" fill="#F9F9F8"/>
<path d="M15.8516 20.1112H6.07598C5.22935 20.1112 4.54004 19.2686 4.54004 18.2313V11.1396C4.54004 10.1036 5.22935 9.26099 6.07598 9.26099H15.8556C16.7009 9.26099 17.3902 10.1036 17.3902 11.1396V18.2313C17.3862 19.2686 16.6969 20.1112 15.8516 20.1112ZM6.07598 10.2209C5.66133 10.2209 5.32536 10.6329 5.32536 11.1396V18.2313C5.32536 18.7379 5.66133 19.1499 6.07598 19.1499H15.8556C16.2689 19.1499 16.6049 18.7379 16.6049 18.2313V11.1396C16.6049 10.6329 16.2689 10.2209 15.8556 10.2209H6.07598Z" fill="#1F2933" fill-opacity="0.45"/>
<path d="M16.9935 15.8406H4.92871V16.8019H16.9935V15.8406Z" fill="#1F2933" fill-opacity="0.45"/>
<path d="M16.9935 12.5447H4.92871V13.506H16.9935V12.5447Z" fill="#1F2933" fill-opacity="0.45"/>
<path d="M13.9037 9.74097H12.9424V19.6299H13.9037V9.74097Z" fill="#1F2933" fill-opacity="0.45"/>
<path d="M8.97984 9.74097H8.01855V19.6299H8.97984V9.74097Z" fill="#1F2933" fill-opacity="0.45"/>
</svg>
