<svg width="27" height="32" viewBox="0 0 27 32" fill="none" xmlns="http://www.w3.org/2000/svg">
    <g opacity="0.3">
    <path opacity="0.3" d="M18.6221 6.56646C17.8931 6.56575 17.1943 6.27586 16.6788 5.76043C16.1634 5.245 15.8735 4.54612 15.8728 3.8172V0H3.58788C2.63632 0 1.72373 0.378019 1.05087 1.05088C0.378011 1.72374 0 2.63631 0 3.58787V25.2165C0.00141307 26.1672 0.380044 27.0784 1.05275 27.7501C1.72546 28.4218 2.63724 28.7991 3.58788 28.7991H18.3354C19.2861 28.7991 20.1978 28.4218 20.8706 27.7501C21.5433 27.0784 21.9219 26.1672 21.9233 25.2165V6.56646H18.6221Z" fill="#1F2933" fill-opacity="0.45"/>
    </g>
    <path d="M21.9235 6.56646H18.6223C17.8934 6.56575 17.1945 6.27586 16.6791 5.76043C16.1636 5.245 15.8738 4.54612 15.873 3.8172V0L21.9235 6.56646Z" fill="#1F2933" fill-opacity="0.45"/>
    <path d="M17.4123 20.1119H3.64744C3.51484 20.1119 3.38767 20.0592 3.2939 19.9655C3.20013 19.8717 3.14746 19.7445 3.14746 19.6119C3.14781 19.4796 3.20064 19.3527 3.29437 19.2592C3.3881 19.1658 3.51507 19.1133 3.64744 19.1133H17.4123C17.5446 19.1133 17.6714 19.1658 17.7649 19.2593C17.8585 19.3528 17.911 19.4797 17.911 19.6119C17.9112 19.6775 17.8984 19.7425 17.8734 19.8032C17.8484 19.8638 17.8117 19.9189 17.7654 19.9654C17.7191 20.0118 17.6641 20.0487 17.6035 20.0738C17.5429 20.099 17.4779 20.1119 17.4123 20.1119Z" fill="#1F2933" fill-opacity="0.45"/>
    <path d="M17.4123 14.4791H3.64744C3.51507 14.4791 3.3881 14.4266 3.29437 14.3331C3.20064 14.2396 3.14781 14.1128 3.14746 13.9805C3.14746 13.8478 3.20013 13.7206 3.2939 13.6269C3.38767 13.5331 3.51484 13.4805 3.64744 13.4805H17.4123C17.4779 13.4805 17.5429 13.4934 17.6035 13.5186C17.6641 13.5437 17.7191 13.5805 17.7654 13.627C17.8117 13.6734 17.8484 13.7286 17.8734 13.7892C17.8984 13.8499 17.9112 13.9149 17.911 13.9805C17.911 14.1127 17.8585 14.2395 17.7649 14.333C17.6714 14.4266 17.5446 14.4791 17.4123 14.4791Z" fill="#1F2933" fill-opacity="0.45"/>
    <path d="M17.4123 17.2955H3.64744C3.51484 17.2955 3.38767 17.2428 3.2939 17.1491C3.20013 17.0553 3.14746 16.9281 3.14746 16.7955C3.14781 16.6632 3.20064 16.5363 3.29437 16.4428C3.3881 16.3494 3.51507 16.2969 3.64744 16.2969H17.4123C17.5446 16.2969 17.6714 16.3494 17.7649 16.4429C17.8585 16.5364 17.911 16.6633 17.911 16.7955C17.9112 16.8611 17.8984 16.9261 17.8734 16.9868C17.8484 17.0474 17.8117 17.1026 17.7654 17.149C17.7191 17.1954 17.6641 17.2323 17.6035 17.2574C17.5429 17.2826 17.4779 17.2955 17.4123 17.2955Z" fill="#1F2933" fill-opacity="0.45"/>
    <path d="M11.9832 11.6627H3.64744C3.51507 11.6627 3.3881 11.6102 3.29437 11.5167C3.20064 11.4233 3.14781 11.2964 3.14746 11.164C3.14746 11.0314 3.20013 10.9043 3.2939 10.8105C3.38767 10.7167 3.51484 10.6641 3.64744 10.6641H11.9832C12.1156 10.6644 12.2424 10.7172 12.3359 10.811C12.4293 10.9047 12.4818 11.0317 12.4818 11.164C12.4815 11.2962 12.4288 11.4228 12.3354 11.5162C12.242 11.6097 12.1153 11.6623 11.9832 11.6627Z" fill="#1F2933" fill-opacity="0.45"/>
    <path d="M11.9832 8.84629H3.64744C3.51507 8.84629 3.3881 8.79378 3.29437 8.7003C3.20064 8.60682 3.14781 8.48001 3.14746 8.34764C3.14746 8.21504 3.20013 8.08784 3.2939 7.99407C3.38767 7.90031 3.51484 7.84766 3.64744 7.84766H11.9832C12.1156 7.84801 12.2424 7.90083 12.3359 7.99456C12.4293 8.08829 12.4818 8.21527 12.4818 8.34764C12.4815 8.47978 12.4288 8.6064 12.3354 8.69984C12.242 8.79328 12.1153 8.84594 11.9832 8.84629Z" fill="#1F2933" fill-opacity="0.45"/>
    <path d="M24.5247 22.7461H7.85318C6.67059 22.7461 5.71191 23.7048 5.71191 24.8874V29.8579C5.71191 31.0405 6.67059 31.9991 7.85318 31.9991H24.5247C25.7072 31.9991 26.6659 31.0405 26.6659 29.8579V24.8874C26.6659 23.7048 25.7072 22.7461 24.5247 22.7461Z" fill="#1F2933" fill-opacity="0.45"/>
    <path d="M11.1813 28.4492V29.4185H10.1787V28.4492H11.1813Z" fill="#F9F9F8"/>
    <path d="M12.6558 28.0127V29.4193H11.6865V25.4102H13.2571C13.7331 25.4102 14.0971 25.5288 14.3464 25.7648C14.4726 25.8888 14.5711 26.038 14.6354 26.2028C14.6998 26.3676 14.7285 26.5441 14.7198 26.7208C14.7246 26.9539 14.6671 27.184 14.5531 27.3874C14.4367 27.5863 14.2642 27.7463 14.0571 27.8474C13.8074 27.9654 13.5332 28.0226 13.2571 28.0141L12.6558 28.0127ZM13.7331 26.7208C13.7331 26.3652 13.5385 26.1874 13.1491 26.1874H12.6558V27.2314H13.1491C13.5385 27.235 13.7331 27.0647 13.7331 26.7208Z" fill="#F9F9F8"/>
    <path d="M18.5505 28.4534C18.3836 28.7566 18.1314 29.0042 17.8252 29.1654C17.4806 29.3418 17.0975 29.4293 16.7106 29.4201H15.1973V25.4109H16.7106C17.0978 25.4012 17.4815 25.4868 17.8279 25.6602C18.1332 25.818 18.3847 26.0631 18.5505 26.3642C18.724 26.6839 18.8113 27.0432 18.8038 27.4068C18.811 27.7717 18.7238 28.1323 18.5505 28.4534ZM17.5079 28.2521C17.6162 28.1409 17.7002 28.0082 17.7544 27.8627C17.8086 27.7171 17.8318 27.5619 17.8225 27.4068C17.8318 27.252 17.8087 27.0969 17.7545 26.9515C17.7003 26.8062 17.6163 26.6738 17.5079 26.5629C17.2654 26.3501 16.9486 26.2418 16.6266 26.2615H16.1666V28.5521H16.6266C16.9483 28.5717 17.2649 28.4639 17.5079 28.2521Z" fill="#F9F9F8"/>
    <path d="M21.9671 25.4102V26.1821H20.3232V27.0608H21.5925V27.7981H20.3232V29.4193H19.3525V25.4102H21.9671Z" fill="#F9F9F8"/>
    <path d="M17.1686 7.84766H14.8114C14.4005 7.84766 14.0674 8.18075 14.0674 8.59163V10.9489C14.0674 11.3598 14.4005 11.6929 14.8114 11.6929H17.1686C17.5795 11.6929 17.9126 11.3598 17.9126 10.9489V8.59163C17.9126 8.18075 17.5795 7.84766 17.1686 7.84766Z" fill="#1F2933" fill-opacity="0.45"/>
    </svg>
    